<?xml version="1.0" encoding="UTF-8"?><svg id="Layer_1" xmlns="http://www.w3.org/2000/svg" viewBox="0 0 512 512"><defs><style>.cls-1{fill:#fff;stroke-width:0px;}</style></defs><path class="cls-1" d="m133.95,226.78c25.64,64.45,63.67,125.7,112.83,174.74-4.19,3.78-8.37,7.37-12.58,10.77-50.91-51.05-90.62-115.32-116.81-182.55-15.08-34.72-24-74.86-24.58-110.87,5.34,1.56,10.98,2.04,16.59,1.37,1.1,35.21,10.61,74.98,24.57,106.55h-.01Z"/><path class="cls-1" d="m245.81,53.31c-4.22,3.58-8.41,7.31-12.59,11.21-80.19-57.5-121.41-28.6-123.82,41.79-5.57,1.05-11.31.31-16.38-1.98,2.83-83.98,59.78-118.7,152.79-51.03h0Z"/><path class="cls-1" d="m386.2,286.01c47.08,128.42,6.49,245.46-128.85,125.97-4.17,3.8-8.37,7.42-12.57,10.87,160.29,140.06,213.18-9.92,151.44-157.61-3.16,6.94-6.51,13.87-10.02,20.78h0Z"/><path class="cls-1" d="m384.84,25.72c-60.13-29.24-144.51,41.96-182.39,92.16,7.58-.74,15.25-1.31,23.02-1.73C313.16,11.19,434.63-12.73,398.83,164.23c5.37,1.72,10.62,3.54,15.71,5.45,14.05-50.94,8.21-124.73-29.68-143.95h-.01Z"/><path class="cls-1" d="m196,451.77c3.28,4.9,4.8,10.83,4.52,16.38-73.68,27.31-118.62-14.54-106.36-114.07,5.2,1.87,10.54,3.65,16,5.31-8.79,82.54,23.38,118.38,85.84,92.39h0Z"/><path class="cls-1" d="m410.84,184.67c-23.21,84.4-69.93,165.33-131.42,227.63-20.35,21.71-43.03,38.8-65.38,49.87-.63-5.44-2.35-10.85-5.25-15.89l-.26-.46c28.8-15.14,58.2-40.39,79.62-67,49.2-57.49,87.42-126.54,107.08-199.67,5.36,1.74,10.58,3.57,15.62,5.52h0Z"/><path class="cls-1" d="m96.23,154.78c-188.22,76.16-66.17,187.3,75.5,204.6-4.42-6.2-8.76-12.56-13-19.07-134.76-23.47-215.66-116.56-44.51-174.02-1.2-5.52-2.26-10.97-3.12-16.33-5.41,1.69-9.75,2.93-14.88,4.82h0Z"/><path class="cls-1" d="m336.16,151.44c-68.63-10.02-140.69-7.68-207.72,10.34-1.19-5.51-2.19-10.94-3.03-16.29,27.82-7.61,58.54-12.52,87.92-14.76,74.76-5.18,152.97,1.54,222.07,31.31,6.08,2.56,11.76,5.24,17.07,8.03-4.36,4.1-7.71,9.01-9.91,14.38-31.35-17.3-71.43-29.41-106.41-33.03h0Z"/><path class="cls-1" d="m503.61,215.53c24.51,46.74-6.12,93.07-73.14,119.53-.99-5.44-2.13-10.96-3.41-16.52,88.17-39.61,86.05-89.03,27.51-126.9,1.84-5.62,5.5-10.66,10.71-14.17,15.62,9.89,29.65,22.39,38.35,38.06h-.01Z"/><circle class="cls-1" cx="257.56" cy="247.69" r="55.07"/><circle class="cls-1" cx="173.02" cy="466.92" r="27.53"/><circle class="cls-1" cx="104.34" cy="79.24" r="27.53"/><circle class="cls-1" cx="480.71" cy="200.25" r="27.53"/></svg>