<?xml version="1.0" encoding="UTF-8"?><svg id="Layer_1" xmlns="http://www.w3.org/2000/svg" viewBox="0 0 1024 1024"><defs><style>.cls-1{fill:#fff;}</style></defs><path class="cls-1" d="M233.92,635.35H12v-246.7h235.5l29.38,41.58v59.25l-24.77,21.83,28.76,25.29v57.17l-46.95,41.58ZM196.68,484.45v-32.74h-99.27v32.74h99.27ZM197.54,572.29v-34.13h-100.13v34.13h100.13Z"/><path class="cls-1" d="M439.12,635.35h-85.06v-90.95l-106.89-155.74h87.31l62.37,93.72,61.85-93.72h87.31l-106.89,155.74v90.95Z"/><path class="cls-1" d="M602.41,635.35h-85.41v-246.7h247.04v50.07l-14.9,12.99h-146.74v32.74h132.01v56.82h-132.01v94.07Z"/><path class="cls-1" d="M922.95,635.35h-84.89v-183.64h-89.05v-63.06h262.98v50.07l-14.73,12.99h-74.32v183.64Z"/></svg>