<?xml version="1.0" encoding="UTF-8"?><svg id="Layer_1" xmlns="http://www.w3.org/2000/svg" viewBox="0 0 440 500"><defs><style>.cls-1{fill:#fff;stroke-width:0px;}</style></defs><path class="cls-1" d="m440,365.37v29.85l-15.07,7.27v-30.24l15.07-6.89Zm-21.9,10v25.03l-24-14.05,24-10.98Zm-2.35,31.55l-60.09,29.03v-32.03l30.85-14.09,29.23,17.1Zm-66.92.14v32.21l-20.95,10.12v-32.76l20.95-9.57Zm-27.78,12.69v27.76l-26.27-15.73,26.27-12.03Zm-2.57,34.17l-67.71,32.71v-34.74l36.48-16.66,31.24,18.69Zm-74.54,1.11v34.9l-20.81,10.07v-35.46l20.81-9.5Zm-27.64,9.5v35.4l-29.6-14.69v-34.28l29.6,13.57Zm-62.23-28.53l-28.85,16v-29.24l28.85,13.23Zm-35.68-16.35v32.55l-28.53-14.69v-30.96l28.53,13.09Zm-62-28.44l-26,13.84v-25.76l26,11.91Zm-32.83-15.05v28.89l-23.57-12.53v-27.17l23.57,10.8ZM0,230.99l104.73,43.31v131.58L0,357.87v-126.88Zm328.14,47.9v130.13l-105.01,48.01v-136.33l105.01-41.81Zm111.86-186.71v134.83l-105.03,41.83v-136.99l105.03-39.67Zm-223.7,81.86v139.02l-104.73-43.31v-137.97l104.73,42.26Zm-111.57,11.48v81.41L5.58,225.93l99.16-40.4Zm102.57-102.39l-95.74,38.53V44.56l95.74,38.58Zm114.87,46.26l-102.41,38.69-.91-.36-101.57-40.99,99.16-39.94,6.58,2.66,99.16,39.94Zm111.86-42.24l-102.44,38.67-106.03-42.69,99.2-39.94,109.27,43.97Zm-118.4-47.65l-99.2,39.94-99.09-39.92L217.44,0l98.2,39.51Zm-23.18,202.06s-.05.02-.05.02c-.98.39-1.8,1.75-1.8,3.05s.8,2.02,1.8,1.64c.98-.39,1.8-1.75,1.8-3.05s-.77-2-1.75-1.66h0Zm-7.97-5.93c-.34-1.09-.84-4.68-1.07-5.75-.73-3.5-3.01-2.82-3.53-2.61l-5.76,2.23v5.32l5.33-2.07c.2-.07.34-.09.34.16v8.37c0,.25-.14.34-.34.43l-18.24,7.16c.59.82,1.25,1.55,1.96,2.21l3.76-2.52c.89-.59,1.78-.2,1.96.89l.91,5.16c5.9,1.23,12.66-1.41,18.53-7.21l.89-5.84c.18-1.23,1.07-2.32,1.94-2.41l3.78-.43,2.03-3.89-9.31,3.66c-1.43.57-2.82-1.61-3.16-2.84Zm-20.42-15.75l-3.19,1.23.82,2.05c.39.93,0,2.36-.84,3.16l-3.94,3.8c-.3,3.84-.05,7.52.75,10.82l6.42-2.5-.02-18.55h0Zm-4.85,3.73c0-1.27-.8-2.02-1.78-1.68-.02,0-.05.02-.05.02-.89.34-1.57,1.43-1.75,2.57.02.2,0,.41-.07.59.05,1.25.84,1.98,1.82,1.59,1-.41,1.82-1.77,1.82-3.09Zm19.83-26.6c1-.39,1.8-1.75,1.8-3.05,0-1.2-.71-1.91-1.59-1.71l-.46.2c-.87.5-1.55,1.71-1.55,2.89,0,1.3.8,2.05,1.8,1.66Zm-13.32,54.97s-.05.02-.05.02c-1,.39-1.82,1.77-1.82,3.07s.82,2.05,1.82,1.64c1-.39,1.82-1.77,1.82-3.07s-.8-2-1.78-1.66Zm18.62-36.85c0-2.3-2.35-1.98-2.73-1.82l-7.51,2.89v5.46l6.97-2.68c1.48-.57,3.28-1.96,3.28-3.84Zm-61.22-41.03v139.27l105.01-41.81v-137.13l-105.01,39.67Zm86.18,40.15l-3.01,3.61-.05.48,2.35,1.96c.25.2.41.52.41.86,0,.33-.14.65-.39.86l-3.35,2.96c-.05.16-.07.34-.11.5l1.98,2.84c.18.25.25.57.18.89s-.25.57-.52.73l-3.53,2.14c-.07.16-.11.34-.16.5l1.46,3.61c.12.29.11.61-.02.89-.14.27-.36.5-.66.61l-3.48,1.2-.2.45.82,4.25c.07.32-.02.64-.2.91-.2.25-.48.41-.82.45l-3.26.27-.25.41.14,4.64c0,.34-.14.68-.41.91s-.61.32-.96.25l-2.85-.57-.3.34-.57,4.77c-.05.39-.27.7-.61.86-.33.18-.74.18-1.07,0l-2.35-1.27c-.09.09-.2.18-.3.25l-1.21,4.66c-.1.39-.41.7-.8.82-.39.11-.82,0-1.09-.3l-1.87-1.86c-.09.05-.18.11-.27.16l-1.73,4.34c-.16.41-.54.68-.98.7-.44.04-.86-.19-1.07-.57l-1.41-2.41-.2.07-2.16,3.86c-.23.39-.66.59-1.09.57-.46-.05-.84-.34-.98-.77l-.96-2.91h-.16l-2.46,3.27c-.23.3-.57.45-.91.45-.09,0-.18,0-.3-.05-.46-.11-.77-.5-.84-.95l-.46-3.43s-.09-.02-.11-.02l-2.62,2.59c-.33.32-.83.41-1.25.23-.43-.18-.7-.61-.68-1.07l.09-3.86s-.07-.05-.11-.07l-2.71,1.89c-.37.27-.87.28-1.25.02-.39-.25-.59-.7-.52-1.16l.71-4.21s-.07-.09-.11-.14l-2.73,1.2c-.41.18-.89.11-1.21-.18-.34-.3-.46-.75-.34-1.18l1.34-4.39c-.05-.09-.07-.18-.11-.25l-2.73.5c-.41.07-.84-.09-1.09-.43s-.32-.77-.14-1.16l1.98-4.36c-.02-.11-.05-.25-.09-.36l-2.69-.25c-.39-.04-.74-.28-.91-.64-.18-.36-.16-.77.05-1.11l2.57-4.11c-.02-.16,0-.32-.02-.48l-2.62-1.07c-.34-.14-.59-.43-.66-.77-.09-.35,0-.72.23-1l3.05-3.64.05-.57-2.39-1.96c-.25-.2-.41-.52-.41-.86s.14-.66.39-.86l3.39-2.96.11-.59-2.03-2.84c-.18-.25-.25-.59-.18-.89.07-.31.26-.58.52-.75l3.57-2.11.2-.59-1.48-3.64c-.11-.3-.11-.61.02-.91.14-.29.38-.51.68-.61l3.53-1.18.25-.52-.84-4.25c-.07-.32.02-.66.2-.91.2-.25.5-.43.82-.45l3.28-.25.32-.45-.14-4.64c0-.34.14-.68.41-.91s.61-.32.96-.25l2.87.61.34-.39.57-4.77c.05-.39.27-.7.61-.89.34-.17.74-.17,1.07.02l2.37,1.32.34-.27,1.21-4.64c.1-.39.41-.7.8-.82.4-.11.83,0,1.12.3l1.89,1.91c.09-.05.18-.11.27-.16l1.73-4.3c.16-.41.54-.68.98-.7.44-.05.87.18,1.07.57l1.43,2.46.2-.07,2.14-3.82c.33-.55,1.04-.73,1.59-.41.23.14.41.36.5.61l.96,2.96h.14l2.41-3.21c.27-.36.75-.52,1.21-.41s.77.5.84.95l.46,3.46s.07.02.11.02l2.6-2.52c.34-.32.82-.41,1.25-.23s.68.61.68,1.07l-.11,3.89s.05.05.09.07l2.66-1.84c.38-.26.87-.27,1.25-.02.39.25.59.7.5,1.14l-.71,4.23s.05.07.07.11l2.69-1.16c.41-.18.88-.1,1.21.2.32.3.46.75.32,1.18l-1.34,4.39c.02.07.05.14.09.2l2.66-.45c.43-.07.84.09,1.09.43s.32.77.14,1.16l-1.96,4.34.07.3,2.64.27c.39.04.74.28.91.64.18.34.16.77-.05,1.09l-2.53,4.09c0,.14,0,.27.02.41l2.55,1.09c.34.14.57.43.66.77.09.39.02.75-.2,1.02Zm-8.77-8.8s-.05.02-.05.02c-.98.39-1.78,1.73-1.78,3.02s.8,2.02,1.8,1.66c.98-.39,1.78-1.73,1.78-3.02-.02-1.27-.8-2-1.75-1.68h0Zm-3.44,7c-.82-.16-1.18-1.3-.82-2.5l2.12-7.05c-3.21-6.14-8.74-9.18-15.14-8.3l-3.12,5.05c-.66,1.07-1.71,1.43-2.32.82l-2.8-2.75c-4.83,3.02-9.22,7.93-12.5,13.96l23.66-9.05c.59-.23,2.78-.73,4.76.23,1.41.68,3.46,2.36,3.46,6.3,0,3.64-2.3,7.25-4.53,9.96,1.8,1.16,2.91,1.77,3.6,6.5.16.86,1.43,1.16,2.6.55,1.21-.64,2.57-1.89,2.57-5.07v-1.36c0-.3.09-.52.32-.61l2.25-.89c.09-1.71.07-3.36-.05-4.98,0,0-4.05-.8-4.05-.8Zm77.3,133.4s-.05.02-.07.02c-1.09.48-1.98,1.93-1.98,3.23s.89,1.96,1.98,1.45c1.09-.48,1.98-1.93,1.98-3.23s-.84-1.91-1.91-1.48Zm28.78-12.64s-.05.02-.05.02c-1.05.48-1.91,1.89-1.91,3.14s.87,1.91,1.91,1.45c.24-.13.47-.28.68-.45l.73-.91c.32-.55.52-1.18.52-1.77-.05-1.25-.87-1.91-1.89-1.48h0Zm-30.56-19.05l-3.46,1.48.89,1.98c.41.91,0,2.34-.91,3.21l-4.3,4.09c-.34,3.86-.07,7.5.8,10.71l7.01-3.05v-18.41h-.02Zm-5.28,4.09c0-1.27-.87-1.96-1.94-1.52-.02,0-.05.02-.07.02-1.12.48-2,1.91-2,3.21s.89,1.98,2,1.5c1.12-.45,2-1.89,2-3.21Zm21.52-27.78c1.07-.43,1.94-1.84,1.94-3.11,0-1.14-.71-1.75-1.62-1.59l-.8.36c-.84.59-1.5,1.73-1.5,2.82.05,1.3.91,1.98,1.98,1.52h0Zm19.26,13.84c-.87-.09-1.28-1.16-.89-2.39l2.23-7.05c-3.39-5.77-9.29-8.37-16.12-7.07l-3.35,5.18c-.71,1.11-1.82,1.52-2.5.98l-3.01-2.5c-5.21,3.32-10,8.48-13.57,14.71l25.55-10.68c.64-.27,2.96-.91,5.08-.11,1.5.57,3.69,2.07,3.69,5.91,0,3.55-2.46,7.27-4.83,10.09,1.91,1,3.12,1.52,3.83,6.09.18.82,1.53,1.02,2.75.32,1.28-.73,2.73-2.05,2.73-5.16v-1.32c0-.27.09-.52.34-.61l2.39-1.02c.09-1.66.09-3.3-.05-4.86l-4.28-.5h0Zm3.64-7.09s-.05.02-.05.02c-1.05.43-1.89,1.82-1.89,3.09s.84,1.93,1.89,1.48,1.89-1.82,1.89-3.09-.82-1.89-1.84-1.5h0Zm-76.8-21.05v129.72l105.03-48.01v-123.51l-105.03,41.81Zm85.97,29.08l-3.12,3.68c-.02.16-.05.34-.05.5l2.37,1.66c.27.2.46.52.48.86.02.35-.12.69-.39.91l-3.51,3.11-.11.52,2.03,2.52c.21.24.29.57.23.89-.05.32-.23.6-.5.77l-3.73,2.36-.18.52,1.5,3.36c.14.27.14.61.02.89-.11.3-.34.52-.64.64l-3.76,1.5c-.09.16-.16.34-.25.5l.87,4.05c.07.3,0,.61-.18.89-.18.25-.46.43-.75.48l-3.55.57-.32.48.14,4.55c0,.32-.11.64-.36.86-.24.23-.56.33-.89.3l-3.16-.32c-.14.14-.25.3-.39.43l-.61,4.8c-.05.34-.25.66-.57.84-.3.18-.68.21-1,.07l-2.64-1.09-.41.36-1.32,4.77c-.1.37-.38.66-.75.77-.37.12-.77.04-1.07-.2l-2.07-1.71-.41.25-1.91,4.55c-.16.39-.52.65-.93.68-.41.05-.82-.14-1.05-.5l-1.55-2.25-.34.14-2.41,4.14c-.23.39-.64.59-1.09.57-.44-.04-.82-.33-.98-.75l-1.02-2.75c-.09,0-.18.02-.3.05l-2.75,3.57c-.23.27-.55.45-.91.45-.09,0-.18,0-.3-.05-.43-.11-.77-.48-.84-.93l-.48-3.25c-.07-.02-.16-.02-.25-.02l-2.94,2.91c-.34.32-.82.41-1.25.23-.43-.18-.7-.61-.68-1.07l.11-3.68c-.07-.05-.14-.07-.2-.09l-3.03,2.18c-.39.27-.89.3-1.28.05s-.59-.7-.52-1.16l.75-4.05c-.07-.07-.11-.14-.18-.2l-3.01,1.45c-.41.2-.91.14-1.25-.16s-.48-.77-.34-1.2l1.41-4.27c-.07-.09-.09-.2-.16-.32l-2.94.73c-.43.11-.89-.05-1.16-.39-.28-.34-.33-.81-.14-1.2l2.09-4.32c-.05-.14-.07-.3-.11-.45h-2.82c-.42,0-.8-.23-1-.59-.2-.36-.19-.81.05-1.16l2.73-4.16c-.02-.18-.02-.39-.02-.57l-2.71-.8c-.36-.11-.66-.41-.77-.77s-.02-.77.23-1.07l3.28-3.77.07-.68-2.48-1.66c-.3-.2-.48-.52-.5-.86-.02-.36.11-.7.39-.93l3.67-3.16c.05-.25.11-.49.18-.73l-2.09-2.55c-.2-.25-.3-.59-.25-.91s.25-.61.52-.77l3.87-2.36.27-.73-1.57-3.36c-.14-.3-.14-.61-.02-.91.12-.3.36-.53.66-.64l3.87-1.45.36-.68-.89-4.07c-.07-.32,0-.64.18-.89s.46-.43.77-.48l3.64-.5.43-.59-.14-4.55c0-.34.14-.66.36-.86s.57-.34.91-.3l3.21.41.48-.5.61-4.75c.05-.36.25-.66.57-.84s.68-.18,1.02-.05l2.66,1.18.48-.36,1.32-4.71c.11-.39.39-.66.77-.77.37-.11.78-.03,1.07.23l2.09,1.82.43-.23,1.89-4.41c.16-.39.52-.64.96-.68.41-.02.82.16,1.05.5l1.55,2.34c.11-.02.23-.09.34-.11l2.35-3.96c.23-.39.64-.57,1.09-.55.44.04.81.34.96.75l1,2.82c.09,0,.16-.02.25-.02l2.66-3.39c.27-.36.75-.5,1.18-.39s.77.48.84.93l.48,3.27c.06.02.12.03.18.02l2.82-2.71c.34-.32.82-.41,1.25-.23s.68.61.68,1.07l-.11,3.68s.07.05.11.07l2.89-2.02c.38-.27.89-.28,1.28-.02.39.25.59.7.5,1.16l-.73,4.05s.07.07.09.11l2.87-1.32c.41-.18.89-.11,1.23.18.34.3.48.77.32,1.2l-1.37,4.23c.02.06.05.13.09.18l2.8-.61c.43-.09.87.07,1.14.41s.32.8.14,1.2l-2,4.25.07.27,2.69.07c.41.02.77.25.98.61s.18.8-.05,1.14l-2.6,4.07c0,.14,0,.27.02.41l2.57.82c.36.12.64.41.75.77.11.36.14.64-.11.93h0Zm-26.27,22.8c-.36-1.05-.91-4.52-1.14-5.57-.77-3.39-3.23-2.52-3.78-2.3l-6.19,2.68v5.25l5.74-2.5c.23-.09.36-.11.36.14v8.23c0,.25-.16.36-.36.45l-19.79,8.71c.66.75,1.37,1.43,2.12,2.02l4.1-2.84c.98-.68,1.91-.36,2.14.7l.98,5.02c6.38.66,13.66-2.55,19.95-8.78l.96-5.82c.2-1.23,1.14-2.36,2.07-2.52l4.03-.75,2.16-3.98-9.9,4.36c-1.59.68-3.07-1.34-3.44-2.52h0Zm-.14-20.14c0-2.25-2.5-1.75-2.94-1.59l-8.08,3.43v5.39l7.51-3.21c1.59-.68,3.51-2.16,3.51-4.02h0Zm-248.59,78.29s-.05-.02-.07-.02c-1.09-.5-1.96.23-1.96,1.61s.89,2.91,1.96,3.39c1.09.5,1.96-.23,1.96-1.61s-.84-2.84-1.89-3.36h0Zm14.66-46.94c1.12.45,2-.3,2-1.71s-.87-2.86-1.94-3.36c-.02,0-.05-.02-.07-.02-1.12-.45-2,.3-2,1.71s.91,2.93,2,3.39h0Zm5.97,46.56c-.39-1.48-.93-5.84-1.18-7.21-.8-4.46-3.35-5.77-3.92-6.05l-6.35-2.8v5.68l5.87,2.59c.23.09.39.23.39.48v9c0,.27-.16.25-.39.14l-19.9-8.93,2.09,4.09,4.05.7c.98.16,1.91,1.39,2.12,2.73l.98,6.34c6.44,6.73,13.93,10.21,20.51,9.46l1.02-5.5c.23-1.16,1.21-1.52,2.21-.8l4.3,3.09c.84-.68,1.62-1.45,2.35-2.32l-10.56-4.75c-1.66-.66-3.21-4.3-3.6-5.96h0Zm-27.57-35.46c0-1.36-.84-2.82-1.89-3.32-.02,0-.05-.02-.07-.02-1.07-.45-1.94.27-1.94,1.66s.87,2.86,1.94,3.34c1.09.48,1.96-.27,1.96-1.66Zm5.19.25l-3.42-1.48.87,2.89c.41,1.32,0,2.5-.91,2.61l-4.21.57c-.34,3.8-.07,7.89.77,12.07l6.88,3.05s.02-19.71.02-19.71Zm31.37,49.1s-.05-.02-.07-.02c-1.12-.5-2.03.23-2.03,1.64s.91,2.96,2.03,3.48,2.05-.23,2.05-1.64-.89-2.91-1.98-3.46Zm-9.08-36.17c0-2.48-2.62-4.23-3.05-4.43l-8.31-3.57v5.87l7.7,3.34c1.66.7,3.67.84,3.67-1.2Z"/><path class="cls-1" d="m213.68,319.36l-102.12-42.24v131.9l45.35,20.8,59.38,27.21v-136.58l-2.62-1.09Zm-18.58,64.9c-.11.35-.38.64-.73.77l-2.82.93-.05.84,2.8,4.48c.21.35.23.77.05,1.14-.2.36-.57.59-.98.59l-2.91.07c-.07.23-.09.45-.16.68l2.14,4.68c.18.39.11.86-.16,1.2s-.73.48-1.14.39l-2.98-.73c-.09.16-.16.34-.25.5l1.46,4.64c.14.43,0,.91-.34,1.2s-.84.36-1.25.16l-3.05-1.5c-.09.11-.18.23-.3.32l.75,4.41c.07.45-.14.91-.52,1.16-.4.25-.91.23-1.28-.07l-3.03-2.27c-.11.07-.23.11-.34.18l.11,4.05c.02.48-.27.89-.71,1.07-.43.19-.93.09-1.25-.25l-2.94-3.02c-.11.02-.25.02-.36.05l-.5,3.55c-.07.45-.41.84-.84.95-.09.02-.18.02-.27.02-.36,0-.71-.16-.91-.48l-2.73-3.73c-.14,0-.27-.05-.43-.05l-1.05,3c-.13.43-.53.73-.98.75-.43.02-.89-.18-1.09-.59l-2.39-4.34c-.16-.05-.32-.14-.48-.18l-1.55,2.46c-.23.37-.64.57-1.07.52-.42-.04-.79-.31-.96-.7l-1.91-4.82-.55-.34-2.07,1.84c-.3.27-.71.36-1.09.25s-.68-.41-.77-.8l-1.32-5.07-.55-.48-2.62,1.18c-.33.16-.71.14-1.02-.05-.32-.18-.52-.5-.57-.86l-.61-5.12-.5-.59-3.14.39c-.33.04-.67-.07-.91-.3-.25-.23-.39-.55-.36-.86l.14-4.91-.43-.66-3.57-.55c-.31-.04-.58-.22-.75-.48-.18-.25-.25-.57-.18-.89l.89-4.41-.34-.73-3.8-1.55c-.28-.12-.5-.34-.61-.61-.11-.27-.11-.59,0-.89l1.55-3.68-.25-.77-3.78-2.5c-.25-.18-.43-.45-.5-.75s.02-.61.2-.86l2.09-2.82c-.07-.25-.11-.52-.16-.77l-3.57-3.32c-.25-.22-.39-.55-.36-.89.02-.34.18-.64.46-.84l2.46-1.86-.07-.75-3.19-3.93c-.23-.3-.32-.66-.2-1.02.09-.35.36-.64.71-.75l2.66-.95c.02-.2,0-.43.02-.66l-2.66-4.39c-.21-.34-.22-.77-.02-1.11.18-.36.55-.59.96-.61l2.75-.14c.05-.16.07-.34.11-.5l-2.07-4.59c-.18-.39-.11-.84.16-1.18s.71-.48,1.12-.39l2.85.61c.07-.11.11-.25.16-.36l-1.41-4.61c-.14-.43,0-.89.34-1.18s.82-.36,1.23-.16l2.89,1.36c.07-.07.11-.18.18-.25l-.75-4.41c-.07-.45.14-.91.52-1.16s.89-.23,1.28.05l2.91,2.09c.09-.05.16-.11.23-.16l-.11-4.05c-.02-.47.25-.89.68-1.07.43-.19.93-.09,1.25.25l2.82,2.82.32-.07.48-3.59c.07-.45.39-.84.84-.95s.91.05,1.21.41l2.64,3.52c.13,0,.26.02.39.05l1.02-3.07c.14-.43.52-.73.98-.77.43-.02.89.18,1.09.57l2.35,4.16.48.16,1.57-2.55c.23-.36.64-.57,1.07-.55.42.04.79.31.96.7l1.91,4.68.57.32,2.09-1.96c.3-.27.71-.36,1.09-.27.39.11.68.41.77.8l1.32,5,.61.5,2.66-1.3c.34-.16.73-.16,1.05.02s.55.5.59.86l.61,5.09.61.68,3.21-.5c.34-.05.68.05.93.27.25.23.39.55.39.89l-.16,4.91.55.82,3.67.45c.32.04.6.21.77.48.18.27.25.59.18.89l-.91,4.43.48.91,3.92,1.5c.3.11.52.34.64.61.11.3.11.61,0,.89l-1.62,3.73.36,1,3.94,2.48c.27.18.46.46.52.77.05.32-.02.64-.23.89l-2.19,2.84.23,1,3.73,3.36c.25.23.39.57.39.91-.02.34-.18.66-.48.86l-2.57,1.86.09.95,3.35,4.05c.23.25.32.64.2,1h0Zm-10.22-16.55s-.05-.02-.07-.02c-1.14-.5-2.05.27-2.07,1.68,0,1.41.91,2.98,2.05,3.46,1.14.5,2.07-.25,2.07-1.68.02-1.39-.87-2.91-1.98-3.43h0Zm-3.96,4.5c-.93-.93-1.37-2.5-.93-3.5l2.44-5.8c-3.67-9.62-9.93-17.89-17.12-22.62l-3.46,2.73c-.73.59-1.89.05-2.57-1.16l-3.07-5.39c-5.28-.95-10.06.48-13.62,4.05l26,11.05c.66.27,3.12,1.71,5.35,4.5,1.59,2,3.94,5.71,3.92,10,0,3.98-2.64,5.8-5.15,6.71,2.03,2.89,3.3,4.61,4.08,10.41.18,1.09,1.64,2.61,2.94,3,1.39.43,2.96.36,2.96-3.14v-1.48c0-.32.11-.48.36-.36l2.6,1.14c.11-1.83.09-3.67-.05-5.5l-4.67-4.64h0Z"/></svg>