<?xml version="1.0" encoding="UTF-8"?><svg id="Layer_1" xmlns="http://www.w3.org/2000/svg" viewBox="0 0 405.05 510.06"><defs><style>.cls-1{fill:#fff;}</style></defs><path class="cls-1" d="M405,222.41c0,41.16.16,82.31-.07,123.47-.11,20.45-7.37,38.67-20.04,54.48-21.65,27.03-50.72,38.63-84.71,38.73-42.98.13-85.96-.09-128.94-.28-4.11-.02-6.76,1.27-9.77,4.31-21.1,21.28-42.56,42.21-63.92,63.23-.94.92-2.03,1.73-3.17,2.41-4.73,2.81-8.29,1.01-8.34-4.54-.18-20.14-.29-40.27-.09-60.41.04-4.09-.64-5.31-5.09-6.16-28.19-5.4-49.91-20.68-65.63-44.62C4.44,376.58-.02,358.45,0,338.88c.1-80.31-.11-160.61.08-240.92.05-23.2,8.82-43.44,22.96-61.58C39.14,15.75,60.83,4.74,86.16,1.37c12.44-1.66,25.28-.42,37.94-.42,48.99,0,97.97.08,146.96-.03,12.49-.03,24.97-.98,37.46-.91,23.35.12,43.68,8.58,61.04,23.93,18.19,16.08,30.14,35.92,34.08,60.13.8,4.9,1.29,9.91,1.3,14.87.1,41.16.06,82.32.06,123.47ZM346.48,106.99c-2.1,0-4.22.05-6.34,0-13.62-.34-27.31.04-40.84-1.24-15.57-1.47-27.25-13.34-28.15-29.82-.86-15.92-.52-31.92-.64-47.88-.03-4.2-.69-7.47-4.6-10.46-4.67-3.57-9.23-3.92-14.69-3.87-29.32.28-58.65-.01-87.97.26-18.16.17-36.28-1.2-54.23,4.74-29.35,9.72-46.56,30.14-46.87,60.76-.53,51.98-.17,103.97-.17,155.96,0,1.44.14,2.87.23,4.51,1.39,0,2.37,0,3.34,0,37.32.07,74.64.21,111.96.2,54.81-.01,109.63-.13,164.44-.2.5,0,1-.04,1.5,0,2.68.22,3.5-1.04,3.25-3.61-.36-3.81-.65-7.64-.66-11.46-.05-37.16-.04-74.32-.01-111.47,0-1.95.27-3.9.46-6.4ZM346.25,317.37H62c0,9.65-.19,19.26.04,28.87.38,15.59,5.54,29.39,16.5,40.7,11.17,11.53,25.48,15.8,40.94,15.9,43.79.28,87.58.19,131.38.06,16.45-.05,33.02.47,49.33-1.23,20.96-2.17,39.49-19.31,43.59-38.17,2.05-9.43,1.87-19.36,2.41-29.08.31-5.59.06-11.21.06-17.03ZM145.88,250.66c-.33,2.48-.8,4.59-.84,6.71-.11,5.66.01,11.33-.06,17-.05,4.37-2.09,5.63-6.39,4.88-4.21-.74-4.15-3.85-4.21-6.77-.15-7.09-.05-14.18-.05-21.62h-18.39c-3.9,3.24,4.27,11.91-6.3,12.17-9.77.24-4.69-7.92-7.26-11.75h-18.38c0,6.22-.03,12.03,0,17.83q.06,9.51-9.29,8.77c-.46-.04-.89-.31-1.88-.67v-25.92H12.14v54.64c21.26,0,41.91,0,62.56,0,90.83,0,181.65-.01,272.48.01,14,0,27.99.13,41.99.25,2.54.02,4.62.01,4.46-3.54-.35-7.65-.32-15.32-.78-22.96-.07-1.23-1.91-3.37-2.91-3.35-5.19.08-6.03-2.91-5.96-7.09.1-5.95.03-11.91.03-18.03h-21.8c-.15,2.42-.27,4.56-.43,6.7-.39,5.06-3.75,5.36-7.76,5.06-4.19-.32-3.93-3.27-4.01-6.12-.04-1.33.39-2.85-.12-3.95-.55-1.18-1.97-2.78-2.99-2.76-5.07.1-10.13.68-14.9,1.06,0,7.77-.07,15.69.03,23.62.05,3.96-1.93,5.22-5.58,5.14-4.93-.11-4.93-3.9-5.05-7.05-.27-7.27-.09-14.55-.09-22.25h-20.14c-.37,3.79-.78,7.94-1.25,12.79-3.71-.61-8.1-.13-9.1-1.75-1.89-3.07-1.83-7.33-2.66-11.53-6.33.29-12.88.58-19.17.87,0,8.13.05,15.91-.02,23.69-.04,3.77-3.02,6.07-6.6,5.05-2.71-.78-4.54-2.24-4.44-5.66.23-7.6.07-15.22.07-23.04h-19.52c-.47,3.6.2,7.99-1.68,10.04-1.67,1.82-6.18,1.03-9.31,1.37-.55-4.93-.97-8.65-1.34-11.98h-19.14c0,7.02,0,14,0,20.97,0,6.27-1.02,7.61-5.84,7.55-5.2-.07-6.1-1.36-6.01-7.89.1-6.61.02-13.22.02-20.35h-19.67c0,2.81.23,5.76-.06,8.66-.41,4.1-3.82,4.04-6.42,3.28-1.63-.48-2.97-2.7-3.91-4.42-.56-1.03-.21-2.62-.09-3.94.28-3.03-.75-4.06-3.99-3.81-4.78.38-9.61.1-15.15.1ZM98.39,485.83c.48.17.96.34,1.43.5,2.75-2.33,5.69-4.47,8.23-7.02,16.6-16.6,33.06-33.33,49.73-49.85,1.49-1.48,4.1-2.55,6.21-2.58,18.81-.33,37.63-.49,56.45-.5,27.15,0,54.3-.17,81.45.32,41.8.74,78.99-26.2,89.07-66.39,2.57-10.25,1.54-21.42,2.07-32.17.17-3.57.03-7.15.03-10.88h-35.14c0,10.73.27,21.2-.06,31.65-.75,23.94-11.67,42.05-31.91,54.75-14.27,8.95-30.14,11.03-46.44,10.99-54.63-.14-109.26-.07-163.87-.9-23.57-.36-41.87-11.73-54.6-31.68-8.56-13.42-10.91-28.3-10.24-43.93.28-6.58.05-13.19.05-20.38H12c0,5.63.03,11.41,0,17.2-.06,9.79-.27,19.52,2.94,29.05,9.56,28.31,27.63,48.49,56.15,58.23,8.5,2.9,17.68,3.79,27.31,5.75v57.85ZM279.21,13.11c-.4.56-.8,1.13-1.2,1.69,1.48,1.03,3.1,1.91,4.42,3.11,18.57,16.91,36.73,34.3,55.77,50.67,14.35,12.34,20.55,26.83,19.91,45.88-1.12,33.29-.62,66.64-.78,99.96-.04,8.42,0,16.83,0,25.27h35.73c0-1.61,0-2.91,0-4.21-.01-44.16.06-88.33-.13-132.49-.03-6.93-.43-14.04-2.04-20.74-8.17-34.03-28.26-57.27-62.39-67.51-15.51-4.65-31.34-2.4-47.05-2.65-.73-.01-1.48.66-2.22,1.01ZM51.02,239.81c0-1.81,0-3.11,0-4.41,0-48.14-.1-96.29.07-144.43.03-7.93.56-15.99,2.07-23.76,4.33-22.27,16.46-39.12,36.73-49.76,3.12-1.64,6.52-2.75,9.79-4.1-.06-.54-.12-1.07-.18-1.61-5.13.39-10.31.42-15.37,1.25-14.96,2.47-28.72,8.13-39.94,18.4C21.97,51.74,11.17,77.04,11.55,107.41c.5,39.64.23,79.29.29,118.94,0,4.43,0,8.87,0,13.47h39.18ZM283.25,32.43c-.42.33-.83.66-1.25,1,0,9.95-.11,19.9.04,29.84.08,4.96.4,9.95,1,14.87,1.17,9.48,8.93,17.38,18.41,17.75,11.95.48,23.94.16,35.92-.04,2.49-.04,4.96-1.05,7.45-1.61-1.34-2.34-2.25-5.11-4.09-6.94-14.39-14.31-28.91-28.49-43.51-42.58-4.46-4.31-9.31-8.21-13.98-12.3Z"/><path class="cls-1" d="M308.61,344.91c2.72-3.09,5.53-6.11,8.15-9.28,2.07-2.51,4.03-1.89,5.81.07,1.75,1.91,3.95,3.92,1.35,6.8-1.64,1.83-3.24,3.7-4.97,5.68,5.03,1.4,8.41,6.46,7.97,12.51-.48,6.76-2.36,13.03-8.96,16.6-4.17,2.25-8.28,4.67-12.59,6.62-4.38,1.98-8.67,1.64-12.44-2.45-2.15,2.61-4.13,5-6.08,7.42-1.59,1.96-3.05,4.29-6.06,2.21-3.08-2.12-3.73-4.94-1.96-8.18.92-1.68,2.17-3.18,3.28-4.76-13.43-8.98-11.38-27.41-.64-36.09,6.32-5.11,12.82-9.19,21.66-6.18,6.38,2.18,6.9,2.5,5.49,9.04ZM314.85,352.09c-7.18,9.36-13.96,18.19-21.05,27.42,4.11-1,7.39-1.78,10.66-2.59,11.04-2.74,17.75-13.8,10.39-24.83ZM285.77,373.23c2.87-3.71,5.75-7.07,8.14-10.75.64-.99.36-3.59-.48-4.33-2.62-2.29-5.71-4.04-8.78-6.11-4.45,7.22-2.95,13.9,1.12,21.18ZM287.76,348.94c1.91.85,3.38,1.47,4.83,2.16q8.32,3.95,13.49-3.91c.35-.54.6-1.15.89-1.72-7.59-4.37-13.09-3.47-19.21,3.48Z"/><path class="cls-1" d="M45.43,295.93c-9.47-.05-18.82-9.15-18.33-18.54.49-9.33,6.74-18.29,18.46-18.09,10.74.18,18.45,8.64,18.43,18.87-.02,10.17-8.06,17.81-18.56,17.75ZM55.02,277.93c.03-5.24-4.43-9.87-9.64-10-5.26-.12-9.42,4.3-9.38,9.99.03,5.01,4.33,8.95,9.83,9.01,5.12.05,9.16-3.91,9.19-9Z"/><path class="cls-1" d="M352.24,272.88v4.85c2.41-.61,4.71-1.88,6.76-1.56,3.69.58,6.84,2.48,7.39,6.87.55,4.36-.35,8.72-4.72,9.81-4.06,1.01-8.68.32-12.93-.4-1.06-.18-1.63-3.34-2.42-5.12,1.84.02,3.68.02,5.51.09.27.01.53.57.78.56,2.1-.07,4.38.22,6.21-.55.68-.29.98-4.05.29-4.53-1.46-.99-3.92-1.59-5.55-1.06-6.09,1.97-7.82.95-7.03-5.33.37-2.93.99-7.82,2.49-8.24,4.45-1.23,9.4-.79,14.15-.69.63.01,1.84,2.03,1.66,2.89-.2.94-1.64,2.2-2.63,2.29-3.28.29-6.6.11-9.96.11Z"/><path class="cls-1" d="M305.31,286.5c-1.93,2.57-3.08,4.8-4.87,6.2-1.04.81-4.49.55-4.53.31-.87-4.41-4.23-3.35-7.02-3.38-8.04-.08-9.21-1.88-5.53-9.12,1.72-3.39,3.73-6.65,5.79-9.86,1.99-3.09,4.95-4.37,8.57-3.46,3.69.93,3.28,3.95,3.37,6.82.14,4.56-1.82,9.81,4.22,12.49ZM294.7,273.12l-1.16-.38c-1.92,3.57-3.85,7.15-6,11.15h7.16v-10.77Z"/><path class="cls-1" d="M239.08,278.87c1.45,3.6,3.72,6.55,3.5,9.31-.33,4.07-4.08,6.05-8.05,5.71-3.63-.31-7.27-1.32-10.69-2.61-.77-.29-.62-3.02-.89-4.63,1.48.15,3.04.08,4.43.51,1.04.32,1.81,1.69,2.83,1.87,1.45.26,3.22.26,4.45-.39.8-.43,1.51-2.48,1.14-3.31-.47-1.06-2.06-1.63-3.19-2.39-1.23-.83-2.47-1.63-3.71-2.44,1.14-.86,2.37-1.61,3.38-2.59,1.22-1.18,2.26-2.56,3.38-3.85-1.71-.66-3.39-1.71-5.13-1.83-1.05-.07-2.13,1.64-3.34,1.92-1.37.31-2.91-.09-4.37-.19.4-1.47.35-3.36,1.27-4.33,3.49-3.7,12.28-3.58,16.02-.05,3.42,3.23,2.72,6.66-1.04,9.3Z"/><path class="cls-1" d="M170.15,288.83c3.68,0,5.97-.2,8.2.09,1.03.13,1.93,1.22,2.89,1.87-.84,1.03-1.62,2.89-2.52,2.95-4.81.3-9.69.51-14.46,0-2.86-.3-3.77-2.6-1.52-5.03,2.14-2.32,4.45-4.48,6.69-6.71.94-.94,2.37-1.74,2.7-2.87.57-1.89.44-4,.6-6.01-1.82.33-3.65.61-5.46,1-1.73.37-3.44.86-5.16,1.29.46-1.88.36-4.23,1.48-5.56,2.94-3.49,9.44-3.95,13.28-1.45,4.05,2.63,5.03,6.9,1.99,11.04-2.22,3.02-5.1,5.55-8.72,9.39Z"/><path class="cls-1" d="M107.08,274.21c-2.23.36-3.93.63-5.74.92.18-4.4,6.76-9.36,9.98-7.81,1.21.58,2.51,2.4,2.56,3.71.26,6.46.25,12.95,0,19.41-.04,1.18-1.52,3.14-2.49,3.23-1.07.11-3.11-1.33-3.34-2.4-.69-3.18-.77-6.5-.95-9.78-.13-2.31-.02-4.62-.02-7.3Z"/><path class="cls-1" d="M289,75.58c.06-6.6,6.61-14.03,12.3-13.95,6.38.08,14.66,7.88,14.69,13.84.04,6.1-8.01,14.5-13.72,14.32-6.79-.21-13.34-7.22-13.27-14.21ZM309.64,75.97c-.06-3.69-3.42-7.02-7.09-7.02-3.71,0-7.02,3.25-7.1,6.98-.08,4.1,3.13,7.23,7.3,7.12,3.89-.11,6.95-3.25,6.89-7.07Z"/><path class="cls-1" d="M201.2,342.15c14.81,0,29.62.05,44.42-.03,3.77-.02,6.24,1.62,6.65,5.25.44,3.92-1.56,6.83-5.48,7.73-2.23.51-4.63.34-6.96.33-26.96-.07-53.92-.16-80.89-.31-1.93-.01-4.57.05-5.62-1.08-1.58-1.72-2.99-4.56-2.75-6.74.36-3.26,2.74-5.28,6.68-5.24,14.64.17,29.29.07,43.93.07,0,0,0,.01,0,.02Z"/><path class="cls-1" d="M136.37,137.68c-.22,15.23-12.93,28.42-27.24,28.28-15.24-.15-28.45-13.26-28.04-27.99.52-18.85,15.59-27.72,28.16-27.69,15.1.04,27.33,12.68,27.11,27.4Z"/><path class="cls-1" d="M313,183.36c1.5,0,3.01-.08,4.5.07,3.82.36,6.33,2.53,6.56,6.31.24,3.92-2.49,6.08-6.03,6.8-2.42.49-4.98.39-7.47.39-49.66-.17-99.33-.36-148.99-.55-1.17,0-2.34.02-3.5-.1-4.36-.45-7.75-3.73-7.24-7.34.61-4.29,3.44-6.26,7.68-6.25,8.17,0,129.49.68,154.49.68Z"/><path class="cls-1" d="M313.83,211.1c6.66,0,9.93,1.99,10.2,6.19.26,4.01-3.61,7.01-10.16,7.05-19.8.1-121.66-.33-152.79-.65-2.57-.03-5.64-1.08-7.51-2.74-1.42-1.26-2.37-4.8-1.59-6.34.95-1.86,3.93-3.75,6.05-3.77,22.14-.16,130.16.26,155.8.26Z"/><path class="cls-1" d="M315.97,147.79c5.09,0,8.23,2.35,8.33,5.91.1,3.81-3.13,6.34-8.44,6.35-36.81.08-140.41.62-155.4.77-5.21.05-9.41-3.13-9.41-6.88,0-3.86,3.92-6.67,9.52-6.67,25.82-.02,129.41.48,155.39.52Z"/><path class="cls-1" d="M108.5,228.07c-14.02-.03-26.23-11.19-26.33-24.09-.11-13.47,11.29-23.86,25.77-24.25,15.47-.41,25.63,11.31,25.67,23.52.04,14.07-10.97,24.84-25.11,24.82Z"/><path class="cls-1" d="M109.26,382.89c-14.02-.03-26.23-11.95-26.33-25.7-.11-14.38,11.29-25.46,25.77-25.87,15.47-.44,25.63,12.07,25.67,25.1.04,15.02-10.97,26.51-25.11,26.48Z"/><path class="cls-1" d="M166.1,62.87c-1.69,4.41-3.03,9-5.2,13.16-1.16,2.23-3.7,5.11-5.69,5.16-1.88.05-4.46-2.89-5.64-5.1-2.05-3.85-3.26-8.15-5.67-12.17,0,4.54.1,9.08-.03,13.61-.15,5.28-2.37,7.77-6.53,7.49-4.66-.31-5.42-3.5-5.39-7.37.06-9.33.1-18.66-.02-27.99-.05-4.28,1.23-7.6,5.66-8.71,4.74-1.19,8.33.67,10.38,5.53,2.5,5.9,4.64,11.94,7.3,18.87,2.35-6.31,4.32-11.74,6.39-17.13,2.44-6.36,5.56-8.37,11.13-7.34,3.98.74,5.96,4.01,5.99,10.15.04,8.33.04,16.66-.01,24.99,0,1.47-.27,2.95-.54,4.41-.67,3.64-3.09,4.95-6.54,4.58-3.46-.37-4.74-2.63-4.74-5.87,0-5.33,0-10.66,0-15.98-.29-.1-.58-.19-.87-.29Z"/><path class="cls-1" d="M216.84,62.26c-.37-7.74,1.07-15.15,9.01-19.59,8.46-4.73,20.32-3.12,26.18,3.46,2.45,2.75,3.69,5.94,1.1,8.91-2.67,3.07-5.97,2.15-8.79-.3-3.02-2.62-6.16-4.77-10.3-2.68-4.15,2.1-4.08,6.06-4.04,9.94.02,1.83-.15,3.68.07,5.49.84,6.81,6.8,9.39,12.36,5.41.4-.29.72-.69,1.11-1,4.49-3.55,7.61-3.79,9.98-.76,2.25,2.88.87,7.97-3.23,10.65-7.64,5-15.88,5.87-24.05,1.77-7.35-3.68-9.59-10.52-9.4-18.35.02-.83,0-1.66,0-2.95Z"/><path class="cls-1" d="M88.57,62.8c-1.18-20.7,15.97-26.38,29.51-20.73,2.73,1.14,5.48,3.47,6.94,6,1.02,1.77.75,5.65-.57,7.02-1.24,1.28-4.62.5-7.06.61-.13,0-.27-.17-.41-.26-7.34-4.84-10.02-5.24-13-1.94-2.77,3.06-3.37,15.49-.19,18.35,1.83,1.65,5.1,1.9,7.8,2.26,1.06.14,2.41-.99,3.45-1.78,5.17-3.92,7.86-4.25,10.24-1.12,2.34,3.07.8,7.86-3.84,10.86-7.54,4.89-15.62,5.48-23.54,1.33-8.41-4.4-9.59-12.47-9.32-20.62Z"/><path class="cls-1" d="M198.25,73.93c4.14,0,7.62,0,11.1,0,3.56,0,5.81,1.71,5.86,5.31.06,3.81-2.14,5.71-6,5.69-5.67-.03-11.33.08-17-.03-4.43-.09-7.11-2.68-7.17-7.2-.13-10-.15-20,.01-29.99.07-4.11,1.92-6.98,6.66-6.95,4.71.03,6.49,2.75,6.52,6.99.06,8.48.02,16.96.02,26.19Z"/><path class="cls-1" d="M201.21,369.84c14.15,0,28.3,0,42.45,0,5.9,0,8.4,1.77,8.48,5.94.08,4.3-3.35,7.11-8.93,7.1-23.14-.03-46.28-.12-69.43-.15-5.49,0-10.99.13-16.48.12-4.47,0-7.45-2.58-7.39-6.27.06-3.96,3.16-7.13,7.34-7.15,14.65-.07,29.3-.03,43.95-.03,0,.14,0,.28,0,.42Z"/></svg>