<?xml version="1.0" encoding="UTF-8"?><svg id="Layer_1" xmlns="http://www.w3.org/2000/svg" viewBox="0 0 2004.82 352.11"><defs><style>.cls-1{fill:#fff;stroke-width:0px;}</style></defs><path id="D" class="cls-1" d="m268.4,176c0,150.48-118.36,176-205.92,176H4.84c-2.64,0-4.84-2.2-4.84-3.96v-138.16h67.32v77.44c42.68,1.76,133.32-2.64,133.32-111.32,0-83.6-56.76-115.72-133.32-111.76v77.88H0V3.96C0,2.2,2.2,0,4.84,0h57.64c85.8,0,205.92,19.8,205.92,176Z"/><path id="R" class="cls-1" d="m918.22,352h-62.92c-1.32,0-3.96-1.32-4.4-2.64l-64.24-139.48h-37.84v138.16c0,1.76-2.2,3.96-4.84,3.96h-57.64c-2.2,0-4.4-2.2-4.4-3.96v-202.84h118.36c14.52,0,51.92-1.76,51.92-40.48s-41.36-40.92-51.92-40.92h-118.36V3.96c0-1.76,2.2-3.96,4.4-3.96h113.96c19.8,0,118.8.88,118.8,104.72,0,53.68-29.48,81.84-64.68,94.6,22,49.72,45.76,98.12,67.76,146.96,1.32,3.08-.44,5.72-3.96,5.72h0Z"/><path id="V" class="cls-1" d="m1157,349.8L1024.56,5.28c-1.32-2.64.44-5.28,3.96-5.28h59.84c2.2,0,3.96.88,4.4,2.64l68.64,191.84,46.2-128.92h67.76l-110,284.24c-1.32,3.08-6.6,3.08-8.36,0Z"/><path id="X" class="cls-1" d="m2003.88,6.6l-121.44,169.4c25.96,35.64,51.92,72.16,77.88,108.68h-81.84l-36.52-51.48-84.04,117.48c-.44.88-3.08,1.32-3.96,1.32h-70.4c-4.4,0-6.16-3.52-3.52-6.6l120.56-169.4c-25.96-35.64-51.48-72.16-77.44-108.68h81.84l36.96,51.48L1925.12,1.32c.44-.88,3.08-1.32,3.96-1.32h70.4c4.84,0,6.6,3.52,4.4,6.6Z"/><path id="E" class="cls-1" d="m418.93,260.52V88.48c0-.88,1.1-1.98,2.42-1.98h81.18v31.9h-49.94v39.82h69.08c1.32,0,2.42.88,2.42,1.98v27.94c0,.88-1.1,1.98-2.42,1.98h-69.08v39.6h49.94v32.78h-81.18c-1.32,0-2.42-1.1-2.42-1.98h0Z"/><path id="E-2" class="cls-1" d="m1445.93,260.52V88.48c0-.88,1.1-1.98,2.42-1.98h81.18v31.9h-49.94v39.82h69.08c1.32,0,2.42.88,2.42,1.98v27.94c0,.88-1.1,1.98-2.42,1.98h-69.08v39.6h49.94v32.78h-81.18c-1.32,0-2.42-1.1-2.42-1.98Z"/></svg>