<?xml version="1.0" encoding="UTF-8"?><svg id="Layer_1" xmlns="http://www.w3.org/2000/svg" viewBox="0 0 512 512"><defs><style>.cls-1{fill:#fff;stroke-width:0px;}</style></defs><g id="X"><path class="cls-1" d="m478.74,191.25l-116.56,160.38c23.63,32.48,47.27,65.75,70.9,99.03h-74.5l-33.25-46.91-74.1,108.25h-75.7l112.15-160.38c-23.63-32.48-46.46-67.36-70.1-100.64h74.5l33.25,48.51,76.9-108.25h76.51Z"/></g><g id="V"><path class="cls-1" d="m242.04,307.41c-1.24-1.81-2.48-3.62-3.72-5.43-9.96-14.54-20.27-29.57-30.53-44.03l-4.96-6.98-42.05,117.44-64.88-177.16H31.81l128.77,320.75,81.46-204.59h0Z"/></g><g id="R"><path class="cls-1" d="m410.87,305.07l7.74,16.49h67.39c-10.76-23.22-22.56-47.86-34.42-72.49l-40.7,56h-.01Z"/><path class="cls-1" d="m417.51,96.23c0,35.28-34.04,36.89-47.26,36.89h-89.31c.93,8.71,1.39,17.8,1.39,27.26,0,17.5-1.71,33.96-5.08,48.91-2.36,10.48-5.59,20.42-9.62,29.68h30.78l3.58,5.22,21.4,31.23v-83.36h34.44l11.57,24.65,23.04-32.43,3.59-5.06h31.37c28.44-12.86,50.99-38.16,50.99-82.99C478.39,1.61,388.28.81,370.25.81h-107.74v58.14h107.74c9.61,0,47.26,2,47.26,37.29h0Z"/></g><g id="D"><path class="cls-1" d="m87.28,58.54c70.09,0,121.36,25.66,121.36,101.84,0,67.84-38.71,90.34-75.59,97.78l20.21,55.19c5.46-1.29,10.89-2.79,16.23-4.51l22.03-61.52,2.86-7.97h59.86c10.13-20.82,16.08-46.75,16.08-78.97C270.32,18.04,160.98,0,82.87,0H26v129.5h61.28V58.54Z"/><path class="cls-1" d="m26,209.44v111.31h44.69s-44.69-111.31-44.69-111.31Z"/></g></svg>