<?xml version="1.0" encoding="UTF-8"?><svg id="Layer_1" xmlns="http://www.w3.org/2000/svg" viewBox="0 0 512 512"><defs><style>.cls-1{fill:#fff;stroke-width:0px;}</style></defs><path class="cls-1" d="M0,298.87c0-10.67,0-21.33,0-32,.27-1.61.66-3.22.79-4.84,2.99-37.28,14.82-71.13,38.61-100.45,1.27-1.57,1.85-4.67,1.28-6.62-4.37-14.96-6.74-30.18-6.97-45.75-.35-23.34,3.91-45.7,14.18-66.75.64-1.32,2.48-2.94,3.75-2.92,20.72.23,41.09,3.32,59.15,13.8,17.66,10.24,34.4,22.09,51.38,33.48,2.77,1.86,5.14,2.35,8.29,1.76,12.59-2.34,25.16-5.01,37.85-6.55,45.13-5.47,90.04-4.51,134.58,5.55,2.32.52,5.56-.45,7.62-1.83,8.43-5.65,16.47-11.89,24.85-17.61,24.94-17.01,51.77-28.58,82.65-28.69,3.57-.01,5.29.8,6.74,4.03,16.01,35.57,17.36,72.06,6.81,109.22-1.14,4.01-.64,6.69,1.91,9.86,19.36,24.01,30.75,51.56,35.57,81.89,4.22,26.53,3.54,53.12.24,79.68-2.6,20.92-7.35,41.31-17.22,60.13-17.01,32.41-44.33,53.14-77.59,66.42-32.8,13.09-67.5,17.82-102.44,20.25-36.1,2.51-72.25,2.01-108.38-.18-40.83-2.48-80.54-9.59-118.07-26.81-23.39-10.73-43.03-25.71-57.74-46.97-14.69-21.22-21.35-45.26-24.84-70.39-1.27-9.19-2.03-18.45-3.03-27.68ZM279.89,443.14c29.7-.09,59.25-1.4,87.93-10.28,18.32-5.67,35.55-13.18,49.16-27.32,30.46-31.67,32.93-86.29,14.19-119.81-14.93-26.71-37.65-40.53-68.25-39.46-16.59.58-33.13,3.11-49.65,5.16-24.82,3.08-49.68,5.89-74.7,3.71-28.68-2.51-57.25-6.17-85.93-8.59-25.96-2.19-47.87,6.43-64.05,27.45-18.93,24.61-22.82,52.68-17.63,82.39,4.93,28.21,18.96,50.56,44.5,64.66,21.17,11.69,44.25,17.64,68.08,19.65,24.45,2.3,88.35,2.47,96.34,2.44Z"/><path class="cls-1" d="M235.5,434.11c-1.32,0-2.63-.18-3.91-.55-7.54-2.16-11.91-10.09-9.74-17.67l40.61-141.62c1.75-6.11,7.39-10.38,13.71-10.38,1.32,0,2.63.18,3.91.55,7.54,2.16,11.91,10.09,9.74,17.67l-40.61,141.62c-1.75,6.11-7.39,10.38-13.71,10.38Z"/><path class="cls-1" d="M176.2,403.98c-3.8,0-7.36-1.47-10.04-4.15l-40.72-40.73c-2.59-2.79-4.01-6.37-4.01-10.08,0-3.92,1.46-7.53,4.11-10.19l40.63-40.48c2.67-2.67,6.24-4.15,10.04-4.15s7.36,1.47,10.04,4.15c5.54,5.54,5.54,14.54,0,20.08l-30.65,30.65,30.65,30.65c5.54,5.54,5.54,14.54,0,20.08-2.68,2.68-6.24,4.15-10.04,4.15Z"/><path class="cls-1" d="M335.8,404.13c-3.8,0-7.36-1.47-10.04-4.15-2.68-2.68-4.15-6.24-4.15-10.04s1.48-7.36,4.15-10.04l30.73-30.73-30.73-30.73c-2.68-2.68-4.15-6.24-4.15-10.04s1.48-7.36,4.15-10.04,6.24-4.15,10.04-4.15,7.36,1.47,10.04,4.15l40.62,40.62c2.65,2.65,4.12,6.27,4.12,10.19s-1.42,7.29-4.01,10.08l-40.72,40.73c-2.68,2.68-6.24,4.15-10.04,4.15Z"/></svg>