<?xml version="1.0" encoding="UTF-8"?><svg id="Layer_1" xmlns="http://www.w3.org/2000/svg" viewBox="0 0 500 500"><defs><style>.cls-1{fill:#fff;stroke-width:0px;}</style></defs><path class="cls-1" d="m449.9,0H50.1C22.4,0,0,22.4,0,50.1v399.8c0,27.7,22.4,50.1,50.1,50.1h399.8c27.7,0,50.1-22.4,50.1-50.1V50.1c0-27.7-22.4-50.1-50.1-50.1Zm15.1,424.9c0,22.2-18,40.1-40.1,40.1H75.1c-22.1,0-40.1-18-40.1-40.1V75.1c0-22.1,18-40.1,40.1-40.1h349.8c22.1,0,40.1,18,40.1,40.1v349.8h0Z"/><path class="cls-1" d="m238.6,366.6h-46.2v-104.8h-68.4v104.8h-46.3V124.9h46.3v99.1h68.4v-99.1h46.2v241.7h0Z"/><path class="cls-1" d="m348.1,369.9c-13.8,0-26.4-2.3-37.7-6.8s-21-10.7-29.1-18.5-14.3-17-18.7-27.6c-4.4-10.6-6.6-21.9-6.6-34v-6.6c0-13.7,2.2-26.3,6.5-37.6s10.3-21.1,18.1-29.3c7.7-8.2,16.9-14.6,27.6-19.1,10.6-4.5,22.2-6.8,34.7-6.8s24.5,2.1,34.6,6.4c10.1,4.3,18.7,10.3,25.7,18s12.4,17.1,16,28c3.7,10.9,5.5,22.9,5.5,36.1v19.6h-121.7c.9,6.1,2.7,11.6,5.4,16.7,2.7,5,6.2,9.4,10.4,13,4.2,3.7,9,6.5,14.4,8.5s11.3,3,17.8,3c4.5,0,9-.4,13.5-1.3s8.8-2.2,12.9-3.9c4.1-1.7,7.9-3.8,11.5-6.4,3.5-2.5,6.6-5.5,9.3-9l23.1,24.9c-2.9,4.1-6.6,8.1-11.2,12s-10,7.4-16.3,10.5c-6.3,3-13.2,5.5-20.8,7.4s-16,2.8-24.9,2.8Zm-5.5-148.9c-5.2,0-10,.9-14.3,2.7s-8.1,4.5-11.4,7.9-6,7.5-8.2,12.3-3.9,10.1-5,15.9h75.7v-3.7c-.2-4.9-1.2-9.5-2.8-13.8s-4-8.1-7.1-11.2c-3.1-3.2-6.9-5.6-11.4-7.5s-9.6-2.6-15.5-2.6Z"/></svg>