<?xml version="1.0" encoding="utf-8"?>
<!-- Generator: Adobe Illustrator 28.0.0, SVG Export Plug-In . SVG Version: 6.00 Build 0)  -->
<svg version="1.1" id="Layer_1" xmlns="http://www.w3.org/2000/svg" xmlns:xlink="http://www.w3.org/1999/xlink" x="0px" y="0px"
	 viewBox="0 0 500 500" style="enable-background:new 0 0 500 500;" xml:space="preserve">
<style type="text/css">
	.st0{fill:#FFFFFF;}
</style>
<path class="st0" d="M449.9,0H50.1C22.4,0,0,22.4,0,50.1v399.8C0,477.6,22.4,500,50.1,500h399.8c27.7,0,50.1-22.4,50.1-50.1V50.1
	C500,22.4,477.6,0,449.9,0z M465,424.9c0,22.2-18,40.1-40.1,40.1H75.1C53,465,35,447,35,424.9V75.1C35,53,53,35,75.1,35h349.8
	C447,35,465,53,465,75.1L465,424.9L465,424.9z"/>
<path class="st0" d="M238.6,366.6h-46.2V261.8h-68.4v104.8H77.7V124.9h46.3V224h68.4v-99.1h46.2V366.6z"/>
<path class="st0" d="M348.1,369.9c-13.8,0-26.4-2.3-37.7-6.8s-21-10.7-29.1-18.5c-8.1-7.8-14.3-17-18.7-27.6
	c-4.4-10.6-6.6-21.9-6.6-34v-6.6c0-13.7,2.2-26.3,6.5-37.6c4.3-11.3,10.3-21.1,18.1-29.3c7.7-8.2,16.9-14.6,27.6-19.1
	c10.6-4.5,22.2-6.8,34.7-6.8c12.9,0,24.5,2.1,34.6,6.4c10.1,4.3,18.7,10.3,25.7,18c7,7.7,12.4,17.1,16,28
	c3.7,10.9,5.5,22.9,5.5,36.1v19.6H303c0.9,6.1,2.7,11.6,5.4,16.7c2.7,5,6.2,9.4,10.4,13c4.2,3.7,9,6.5,14.4,8.5c5.4,2,11.3,3,17.8,3
	c4.5,0,9-0.4,13.5-1.3c4.5-0.9,8.8-2.2,12.9-3.9c4.1-1.7,7.9-3.8,11.5-6.4c3.5-2.5,6.6-5.5,9.3-9l23.1,24.9
	c-2.9,4.1-6.6,8.1-11.2,12c-4.6,3.9-10,7.4-16.3,10.5c-6.3,3-13.2,5.5-20.8,7.4S357,369.9,348.1,369.9z M342.6,221
	c-5.2,0-10,0.9-14.3,2.7s-8.1,4.5-11.4,7.9c-3.3,3.4-6,7.5-8.2,12.3c-2.2,4.8-3.9,10.1-5,15.9h75.7v-3.7c-0.2-4.9-1.2-9.5-2.8-13.8
	s-4-8.1-7.1-11.2c-3.1-3.2-6.9-5.6-11.4-7.5S348.5,221,342.6,221z"/>
</svg>
