<?xml version="1.0" encoding="UTF-8"?><svg id="Layer_1" xmlns="http://www.w3.org/2000/svg" viewBox="0 0 453.63 500"><defs><style>.cls-1{fill:#fff;stroke-width:0px;}</style></defs><path class="cls-1" d="M236.63,422.87c-11.36-26.19-22.63-52.42-34.08-78.56-42.03-95.98-84.26-191.87-125.95-288-4.05-9.35-8.02-12.22-17.91-8.75-8.46,2.97-17.72,3.65-27.44,5.5,1.95,4.47,3.53,8.1,5.44,12.49-7.22,4.46-14.36,8.87-23.35,14.42-4.42-9.71-9.6-18.47-12.41-27.92-3.29-11.1,2.36-20.46,13.65-23.76,8.42-2.46,17.5-2.61,25.99-4.88,16.64-4.44,33.08-9.64,51.21-15,58.52,133.36,117.49,267.76,177.04,403.48,57.54-25.84,113.8-51.12,170.96-76.79,4.54,9.98,8.86,19.48,13.86,30.46-66.55,29.97-132.97,59.87-199.6,89.87-6.32-11.42-12.2-22.03-18.07-32.63,0,0,.67.05.67.05Z"/><path class="cls-1" d="M212.15,216.97c-17.53-40.09-34.69-79.32-51.89-118.65-14.75,3.5-10.81-10.33-17.5-16.32C206.16,54.35,268.1,27.35,330.82,0c2.8,6.26,5.25,11.76,7.9,17.69-2.68,1.97-5.02,3.7-7.59,5.6,17.24,39.58,34.34,78.83,51.89,119.13-57.04,24.89-113.63,49.59-170.87,74.56ZM253.89,172.56c21.69-9.09,42.44-17.79,63.6-26.66-2.89-6.57-5.19-11.79-7.68-17.43-7.15,2.78-13.7,5.33-20.22,7.87-16.65-31.92-15.58-44.59,9.7-53.97-1.92-8.04-3.86-16.17-5.84-24.49-16.59.95-24.06,11.13-28.17,25.42-2.66-3.97-4.66-6.97-6.81-10.19-13.4,5.64-26.13,10.99-39.32,16.54,2.76,6.5,5.07,11.94,7.41,17.47,6.3-2.3,11.29-4.13,17.11-6.25,6.64,15.77,13.05,30.98,19.55,46.44-5.92,2.77-11.01,5.16-16.56,7.76,2.56,6.18,4.71,11.39,7.22,17.47Z"/><path class="cls-1" d="M394.62,162.57c1.34,7.99,10.89,12.95,3.4,21.72-.87,1.02,1.42,4.91,2.49,7.37,14.94,34.33,29.92,68.65,44.87,102.98,1.07,2.46,2.01,4.98,3.46,8.62-55.67,24.31-110.96,48.45-166.89,72.88-12.91-29.53-25.43-58.17-37.94-86.82-3.82-8.74-7.55-17.51-11.41-26.22-2.86-6.46-2.92-6.43-11.28-4.89-2.36-5.21-4.82-10.64-7.74-17.09,60.55-26.27,120.29-52.19,181.03-78.54ZM359.59,225.67c-20.43-3.57-37.71,1.06-52.67,13.96-9.24,7.97-11.83,17.56-8.06,27.43,4.12,10.77,12.39,16.05,23.65,16.14,7.8.07,15.63-1.4,23.4-1.08,3.44.14,6.77,3.01,10.15,4.64-2.36,3.28-4.12,8.53-7.2,9.47-9.21,2.81-18.93,3.93-29.88,5.98-1.48,3.81-3.64,9.38-6.22,16.02,23.07,5.91,42.22.38,59.08-13.6,10.78-8.95,13.42-20.05,8.93-30.97-4.66-11.31-13.56-16.27-28.13-15.52-6.79.35-13.59,1.41-20.35,1.14-3.07-.12-6.05-2.69-9.07-4.14,2.36-2.57,4.3-6.59,7.17-7.44,8-2.38,16.39-3.44,25.44-5.18,1.05-4.7,2.29-10.23,3.77-16.85Z"/><path class="cls-1" d="M236.63,422.87s-.67-.05-.67-.05c8.76,23.86,6.5,45.76-13.02,63.52-22.28,20.28-55.77,17.58-75.67-5.38-18.69-21.56-15.95-55.27,6.04-74.29,22.24-19.23,55.7-16.56,74.97,6.02,2.85,3.34,5.57,6.79,8.35,10.19ZM187.8,476.66c16.5-.03,29.98-13.45,29.97-29.86,0-16.3-13.73-30.01-29.97-29.94-16.43.07-29.96,13.59-29.94,29.91.02,16.42,13.54,29.92,29.94,29.89Z"/></svg>