<?xml version="1.0" encoding="utf-8"?>
<!-- Generator: Adobe Illustrator 28.0.0, SVG Export Plug-In . SVG Version: 6.00 Build 0)  -->
<svg version="1.1" id="Luno" xmlns="http://www.w3.org/2000/svg" xmlns:xlink="http://www.w3.org/1999/xlink" x="0px" y="0px"
	 viewBox="0 0 947 947" style="enable-background:new 0 0 947 947;" xml:space="preserve">
<style type="text/css">
	.st0{fill:#FFFFFF;}
</style>
<path class="st0" d="M941.5,111.5c0-58.5-47.5-106-106-106s-106,47.5-106,106s47.5,106,106,106S941.5,170.1,941.5,111.5"/>
<path class="st0" d="M473.5,111.6c-199.8,0-362,162.2-362,362s162.2,362,362,362s362-162.2,362-362S673.3,111.6,473.5,111.6z
	 M348.9,382.8l-3.2,185h-49.4l-3.1-185H348.9z M350.2,652.4c-1.5,3.6-3.6,6.8-6.3,9.4c-2.7,2.6-6.1,4.7-10,6.2
	c-3.9,1.5-8.3,2.2-13.1,2.2c-5,0-9.4-0.8-13.3-2.2c-3.9-1.4-7.2-3.5-10-6.2c-2.7-2.6-4.8-5.7-6.2-9.4s-2.1-7.6-2.1-11.7
	c0-4.3,0.7-8.3,2.1-11.9c1.4-3.6,3.5-6.8,6.2-9.6s6.1-4.8,10-6.3c3.9-1.5,8.3-2.2,13.3-2.2c4.8,0,9.2,0.8,13.1,2.2
	c3.9,1.5,7.2,3.6,10,6.3s4.8,5.9,6.3,9.6c1.5,3.6,2.2,7.6,2.2,11.9C352.4,644.9,351.6,648.8,350.2,652.4z M657.8,611.4H473V567
	h184.8V611.4z M657.8,527.2H473v-44.5h184.8V527.2z M623.5,429.6c-58.5,0-106-47.5-106-106s47.5-106,106-106s106,47.5,106,106
	S682,429.6,623.5,429.6z"/>
<path class="st0" d="M490.3,946.7l-0.4-10.9c13.4-0.5,27-1.5,40.2-3.1l1.3,10.8C517.9,945.2,504,946.3,490.3,946.7z M449,946.4
	c-13.7-0.7-27.6-2-41.1-3.9l1.5-10.8c13.2,1.8,26.8,3.1,40.2,3.8L449,946.4z M572.2,936.7l-2.3-10.6c13.1-2.8,26.2-6.2,39.1-10.1
	l3.2,10.4C599,930.4,585.6,933.9,572.2,936.7z M367.3,935.1c-13.4-3.1-26.8-6.8-39.8-11l3.3-10.3c12.7,4.1,25.8,7.7,38.9,10.7
	L367.3,935.1z M651.1,912.6l-4.1-10.1c12.4-5,24.7-10.7,36.7-16.8l4.9,9.7C676.4,901.6,663.8,907.4,651.1,912.6z M288.8,909.6
	c-12.6-5.4-25.2-11.3-37.3-17.8l5.1-9.6c11.8,6.3,24.1,12.1,36.4,17.4L288.8,909.6z M724.5,875l-5.8-9.2
	c11.3-7.1,22.5-14.8,33.2-22.9l6.5,8.7C747.6,859.9,736.1,867.7,724.5,875z M215.9,870.8c-11.5-7.5-22.8-15.5-33.6-24l6.7-8.6
	c10.6,8.3,21.6,16.1,32.9,23.4L215.9,870.8z M790.4,825.3l-7.3-8.1c10-9,19.6-18.5,28.8-28.3l7.9,7.4
	C810.5,806.4,800.6,816.1,790.4,825.3z M150.9,820c-10-9.3-19.8-19.3-29-29.4l8.1-7.3c9,10,18.5,19.6,28.3,28.8L150.9,820z
	 M846.7,764.9l-8.6-6.7c8.3-10.6,16.2-21.6,23.5-32.8l9.1,5.9C863.2,742.8,855.1,754.1,846.7,764.9z M95.6,758.8
	c-8.3-10.9-16.2-22.4-23.5-34l9.2-5.8c7.1,11.3,14.8,22.5,22.9,33.2L95.6,758.8z M891.7,695.8l-9.6-5.1
	c6.3-11.8,12.2-24.1,17.4-36.4l10,4.2C904.1,671.1,898.1,683.6,891.7,695.8z M51.7,688.9c-6.3-12.2-12-24.8-17.2-37.5l10.1-4.1
	c5,12.4,10.7,24.7,16.8,36.7L51.7,688.9z M924,619.8l-10.3-3.4c4.1-12.7,7.8-25.8,10.8-38.9L935,580
	C931.9,593.4,928.2,606.7,924,619.8z M20.7,612.4c-4-13.1-7.5-26.6-10.4-40l10.6-2.3c2.8,13.1,6.2,26.2,10.1,39.1L20.7,612.4z
	 M942.5,539.4l-10.8-1.5c1.8-13.2,3.1-26.8,3.8-40.2l10.8,0.6C945.7,512,944.4,525.8,942.5,539.4z M3.5,531.7
	c-1.7-13.6-2.8-27.4-3.2-41.2l10.9-0.4c0.5,13.4,1.5,26.9,3.2,40.2L3.5,531.7z M935.9,457.4c-0.5-13.4-1.5-26.9-3.2-40.2l10.8-1.3
	c1.7,13.6,2.8,27.5,3.2,41.2L935.9,457.4z M11.4,449.8l-10.8-0.5c0.7-13.7,2-27.6,3.9-41.1l10.8,1.5
	C13.4,422.9,12.1,436.4,11.4,449.8z M926.1,377.3c-2.8-13.1-6.2-26.3-10.1-39.1l10.4-3.2c4,13.1,7.5,26.6,10.3,40L926.1,377.3z
	 M22.5,370l-10.6-2.4c3.1-13.4,6.8-26.8,11-39.8l10.3,3.3C29.1,343.8,25.5,356.9,22.5,370z M902.5,300.2
	c-5-12.4-10.6-24.8-16.7-36.7l9.7-4.9c6.2,12.2,12,24.9,17.1,37.6L902.5,300.2z M47.3,293.2l-10-4.2c5.3-12.6,11.3-25.2,17.8-37.3
	l9.6,5.1C58.4,268.7,52.5,280.9,47.3,293.2z M85.1,222l-9.1-5.9c7.5-11.5,15.5-22.8,24-33.6l8.6,6.7
	C100.3,199.7,92.4,210.8,85.1,222z M134.8,158.5l-8-7.4c9.3-10,19.2-19.8,29.4-29l7.3,8.1C153.6,139.1,143.9,148.6,134.8,158.5z
	 M194.6,104.4l-6.6-8.7c10.9-8.3,22.4-16.2,34-23.5l5.8,9.2C216.4,88.6,205.3,96.3,194.6,104.4z M690,64.6
	c-11.8-6.3-24.1-12.1-36.5-17.3l4.2-10c12.6,5.3,25.2,11.3,37.3,17.7L690,64.6z M262.8,61.5l-5-9.7c12.2-6.3,24.8-12,37.5-17.2
	l4.1,10.1C287.1,49.7,274.8,55.4,262.8,61.5z M615.7,33.2c-12.8-4.1-25.8-7.7-38.9-10.7l2.4-10.6c13.4,3.1,26.8,6.7,39.8,11
	L615.7,33.2z M337.5,31.2l-3.2-10.4c13.1-4,26.6-7.5,40-10.4l2.3,10.6C363.5,23.8,350.3,27.2,337.5,31.2z M537.1,15.2
	c-13.3-1.8-26.8-3.1-40.2-3.8l0.5-10.8c13.7,0.7,27.5,2,41.1,3.9L537.1,15.2z M416.3,14.3L415,3.6c13.6-1.7,27.4-2.8,41.2-3.3
	l0.4,10.9C443.2,11.6,429.6,12.7,416.3,14.3z"/>
</svg>
