<?xml version="1.0" encoding="UTF-8"?><svg id="Luno" xmlns="http://www.w3.org/2000/svg" viewBox="0 0 946.4 946.4"><defs><style>.cls-1{fill:#fff;stroke-width:0px;}</style></defs><path class="cls-1" d="m941.2,111.2c0-58.5-47.5-106-106-106s-106,47.5-106,106,47.5,106,106,106,106-47.4,106-106"/><path class="cls-1" d="m473.2,111.3c-199.8,0-362,162.2-362,362s162.2,362,362,362,362-162.2,362-362S673,111.3,473.2,111.3Zm-124.6,271.2l-3.2,185h-49.4l-3.1-185h55.7Zm1.3,269.6c-1.5,3.6-3.6,6.8-6.3,9.4-2.7,2.6-6.1,4.7-10,6.2s-8.3,2.2-13.1,2.2-9.4-.8-13.3-2.2-7.2-3.5-10-6.2c-2.7-2.6-4.8-5.7-6.2-9.4s-2.1-7.6-2.1-11.7.7-8.3,2.1-11.9c1.4-3.6,3.5-6.8,6.2-9.6s6.1-4.8,10-6.3,8.3-2.2,13.3-2.2,9.2.8,13.1,2.2c3.9,1.5,7.2,3.6,10,6.3s4.8,5.9,6.3,9.6c1.5,3.6,2.2,7.6,2.2,11.9,0,4.2-.8,8.1-2.2,11.7Zm307.6-41h-184.8v-44.4h184.8v44.4Zm0-84.2h-184.8v-44.5h184.8v44.5Zm-34.3-97.6c-58.5,0-106-47.5-106-106s47.5-106,106-106,106,47.5,106,106-47.5,106-106,106Z"/><path class="cls-1" d="m490,946.4l-.4-10.9c13.4-.5,27-1.5,40.2-3.1l1.3,10.8c-13.5,1.7-27.4,2.8-41.1,3.2Zm-41.3-.3c-13.7-.7-27.6-2-41.1-3.9l1.5-10.8c13.2,1.8,26.8,3.1,40.2,3.8l-.6,10.9Zm123.2-9.7l-2.3-10.6c13.1-2.8,26.2-6.2,39.1-10.1l3.2,10.4c-13.2,4-26.6,7.5-40,10.3Zm-204.9-1.6c-13.4-3.1-26.8-6.8-39.8-11l3.3-10.3c12.7,4.1,25.8,7.7,38.9,10.7l-2.4,10.6Zm283.8-22.5l-4.1-10.1c12.4-5,24.7-10.7,36.7-16.8l4.9,9.7c-12.2,6.2-24.8,12-37.5,17.2Zm-362.3-3c-12.6-5.4-25.2-11.3-37.3-17.8l5.1-9.6c11.8,6.3,24.1,12.1,36.4,17.4l-4.2,10Zm435.7-34.6l-5.8-9.2c11.3-7.1,22.5-14.8,33.2-22.9l6.5,8.7c-10.8,8.3-22.3,16.1-33.9,23.4Zm-508.6-4.2c-11.5-7.5-22.8-15.5-33.6-24l6.7-8.6c10.6,8.3,21.6,16.1,32.9,23.4l-6,9.2Zm574.5-45.5l-7.3-8.1c10-9,19.6-18.5,28.8-28.3l7.9,7.4c-9.3,10.1-19.2,19.8-29.4,29Zm-639.5-5.3c-10-9.3-19.8-19.3-29-29.4l8.1-7.3c9,10,18.5,19.6,28.3,28.8l-7.4,7.9Zm695.8-55.1l-8.6-6.7c8.3-10.6,16.2-21.6,23.5-32.8l9.1,5.9c-7.5,11.5-15.6,22.8-24,33.6Zm-751.1-6.1c-8.3-10.9-16.2-22.4-23.5-34l9.2-5.8c7.1,11.3,14.8,22.5,22.9,33.2l-8.6,6.6Zm796.1-63l-9.6-5.1c6.3-11.8,12.2-24.1,17.4-36.4l10,4.2c-5.4,12.6-11.4,25.1-17.8,37.3Zm-840-6.9c-6.3-12.2-12-24.8-17.2-37.5l10.1-4.1c5,12.4,10.7,24.7,16.8,36.7l-9.7,4.9Zm872.3-69.1l-10.3-3.4c4.1-12.7,7.8-25.8,10.8-38.9l10.5,2.5c-3.1,13.4-6.8,26.7-11,39.8Zm-903.3-7.4c-4-13.1-7.5-26.6-10.4-40l10.6-2.3c2.8,13.1,6.2,26.2,10.1,39.1l-10.3,3.2Zm921.8-73l-10.8-1.5c1.8-13.2,3.1-26.8,3.8-40.2l10.8.6c-.6,13.7-1.9,27.5-3.8,41.1ZM3.2,531.4c-1.7-13.6-2.8-27.4-3.2-41.2l10.9-.4c.5,13.4,1.5,26.9,3.2,40.2l-10.9,1.4Zm932.4-74.3c-.5-13.4-1.5-26.9-3.2-40.2l10.8-1.3c1.7,13.6,2.8,27.5,3.2,41.2l-10.8.3Zm-924.5-7.6l-10.8-.5c.7-13.7,2-27.6,3.9-41.1l10.8,1.5c-1.9,13.2-3.2,26.7-3.9,40.1Zm914.7-72.5c-2.8-13.1-6.2-26.3-10.1-39.1l10.4-3.2c4,13.1,7.5,26.6,10.3,40l-10.6,2.3Zm-903.6-7.3l-10.6-2.4c3.1-13.4,6.8-26.8,11-39.8l10.3,3.3c-4.1,12.7-7.7,25.8-10.7,38.9Zm880-69.8c-5-12.4-10.6-24.8-16.7-36.7l9.7-4.9c6.2,12.2,12,24.9,17.1,37.6l-10.1,4Zm-855.2-7l-10-4.2c5.3-12.6,11.3-25.2,17.8-37.3l9.6,5.1c-6.3,11.9-12.2,24.1-17.4,36.4Zm37.8-71.2l-9.1-5.9c7.5-11.5,15.5-22.8,24-33.6l8.6,6.7c-8.3,10.5-16.2,21.6-23.5,32.8Zm49.7-63.5l-8-7.4c9.3-10,19.2-19.8,29.4-29l7.3,8.1c-9.9,8.9-19.6,18.4-28.7,28.3Zm59.8-54.1l-6.6-8.7c10.9-8.3,22.4-16.2,34-23.5l5.8,9.2c-11.4,7.2-22.5,14.9-33.2,23Zm495.4-39.8c-11.8-6.3-24.1-12.1-36.5-17.3l4.2-10c12.6,5.3,25.2,11.3,37.3,17.7l-5,9.6Zm-427.2-3.1l-5-9.7c12.2-6.3,24.8-12,37.5-17.2l4.1,10.1c-12.3,5-24.6,10.7-36.6,16.8Zm352.9-28.3c-12.8-4.1-25.8-7.7-38.9-10.7l2.4-10.6c13.4,3.1,26.8,6.7,39.8,11l-3.3,10.3Zm-278.2-2l-3.2-10.4c13.1-4,26.6-7.5,40-10.4l2.3,10.6c-13.1,2.8-26.3,6.2-39.1,10.2Zm199.6-16c-13.3-1.8-26.8-3.1-40.2-3.8l.5-10.8c13.7.7,27.5,2,41.1,3.9l-1.4,10.7Zm-120.8-.9l-1.3-10.7c13.6-1.7,27.4-2.8,41.2-3.3l.4,10.9c-13.4.4-27,1.5-40.3,3.1Z"/></svg>