<?xml version="1.0" encoding="UTF-8"?>
<svg id="Layer_1" xmlns="http://www.w3.org/2000/svg" version="1.1" viewBox="0 0 1019.5 1024">
  <!-- Generator: Adobe Illustrator 29.5.1, SVG Export Plug-In . SVG Version: 2.1.0 Build 141)  -->
  <defs>
    <style>
      .st0 {
        fill: #fff;
      }
    </style>
  </defs>
  <path class="st0" d="M626.8,880.4h135.2v142.5h-113.5c-12,0-21.8-9.8-21.8-21.8v-120.7h0Z"/>
  <path class="st0" d="M712.1,927.5h107.9c19.5,0,35.4,15.8,35.4,35.4v48.5c0,6.4-5.2,11.6-11.6,11.6h-131.7v-95.4h0Z"/>
  <path class="st0" d="M371,1024h-113.5v-144.1h135.2v122.4c0,12-9.8,21.8-21.8,21.8h0Z"/>
  <path class="st0" d="M307.5,1024h-131.7c-6.4,0-11.6-5.2-11.6-11.6v-48.5c0-19.5,15.9-35.4,35.4-35.4h107.9v95.4h0Z"/>
  <rect class="st0" x="790.6" y="0" width="84.4" height="167.4" rx="19" ry="19"/>
  <rect class="st0" x="144.6" y="0" width="84.4" height="167.4" rx="19" ry="19"/>
  <path class="st0" d="M957.3,526.3H65.6c-22.4,0-40.5,18.1-40.5,40.5v276.7c0,22.4,18.1,40.5,40.5,40.5h891.8c22.4,0,40.5-18.1,40.5-40.5v-276.7c0-22.4-18.1-40.5-40.5-40.5ZM152.3,790.4c-16.4,0-29.7-13.3-29.7-29.7s13.3-29.7,29.7-29.7,29.7,13.3,29.7,29.7-13.3,29.7-29.7,29.7ZM152.3,679c-16.4,0-29.7-13.3-29.7-29.7s13.3-29.7,29.7-29.7,29.7,13.3,29.7,29.7-13.3,29.7-29.7,29.7ZM271.4,790.4c-16.4,0-29.7-13.3-29.7-29.7s13.3-29.7,29.7-29.7,29.7,13.3,29.7,29.7-13.3,29.7-29.7,29.7ZM271.4,679c-16.4,0-29.7-13.3-29.7-29.7s13.3-29.7,29.7-29.7,29.7,13.3,29.7,29.7-13.3,29.7-29.7,29.7ZM390.6,790.4c-16.4,0-29.7-13.3-29.7-29.7s13.3-29.7,29.7-29.7,29.7,13.3,29.7,29.7-13.3,29.7-29.7,29.7ZM390.6,679c-16.4,0-29.7-13.3-29.7-29.7s13.3-29.7,29.7-29.7,29.7,13.3,29.7,29.7-13.3,29.7-29.7,29.7ZM509.8,790.4c-16.4,0-29.7-13.3-29.7-29.7s13.3-29.7,29.7-29.7,29.7,13.3,29.7,29.7-13.3,29.7-29.7,29.7ZM509.8,679c-16.4,0-29.7-13.3-29.7-29.7s13.3-29.7,29.7-29.7,29.7,13.3,29.7,29.7-13.3,29.7-29.7,29.7ZM628.9,790.4c-16.4,0-29.7-13.3-29.7-29.7s13.3-29.7,29.7-29.7,29.7,13.3,29.7,29.7-13.3,29.7-29.7,29.7ZM628.9,679c-16.4,0-29.7-13.3-29.7-29.7s13.3-29.7,29.7-29.7,29.7,13.3,29.7,29.7-13.3,29.7-29.7,29.7ZM748.1,790.4c-16.4,0-29.7-13.3-29.7-29.7s13.3-29.7,29.7-29.7,29.7,13.3,29.7,29.7-13.3,29.7-29.7,29.7ZM748.1,679c-16.4,0-29.7-13.3-29.7-29.7s13.3-29.7,29.7-29.7,29.7,13.3,29.7,29.7-13.3,29.7-29.7,29.7ZM867.2,790.4c-16.4,0-29.7-13.3-29.7-29.7s13.3-29.7,29.7-29.7,29.7,13.3,29.7,29.7-13.3,29.7-29.7,29.7ZM867.2,679c-16.4,0-29.7-13.3-29.7-29.7s13.3-29.7,29.7-29.7,29.7,13.3,29.7,29.7-13.3,29.7-29.7,29.7Z"/>
  <path class="st0" d="M956.2,124.8H64.4c-22.4,0-40.5,18.1-40.5,40.5v276.7c0,22.4,18.1,40.5,40.5,40.5h891.8c22.4,0,40.5-18.1,40.5-40.5V165.3c0-22.4-18.1-40.5-40.5-40.5ZM288.5,336.7c-32.9,0-59.6-26.7-59.6-59.6s26.7-59.6,59.6-59.6,59.6,26.7,59.6,59.6-26.7,59.6-59.6,59.6ZM454.5,372.7c-9.8,0-17.7-7.9-17.7-17.7s7.9-17.7,17.7-17.7,17.7,7.9,17.7,17.7-7.9,17.7-17.7,17.7ZM490.5,389.5c-9.8,0-17.7-7.9-17.7-17.7s7.9-17.7,17.7-17.7,17.7,7.9,17.7,17.7-7.9,17.7-17.7,17.7ZM529.6,389.5c-9.8,0-17.7-7.9-17.7-17.7s7.9-17.7,17.7-17.7,17.7,7.9,17.7,17.7-7.9,17.7-17.7,17.7ZM565,372.7c-9.8,0-17.7-7.9-17.7-17.7s7.9-17.7,17.7-17.7,17.7,7.9,17.7,17.7-7.9,17.7-17.7,17.7ZM731,336.7c-32.9,0-59.6-26.7-59.6-59.6s26.7-59.6,59.6-59.6,59.6,26.7,59.6,59.6-26.7,59.6-59.6,59.6Z"/>
</svg>