<?xml version="1.0" encoding="UTF-8"?><svg id="Layer_1" xmlns="http://www.w3.org/2000/svg" viewBox="0 0 490 490"><defs><style>.cls-1{fill:#fff;stroke-width:0px;}</style></defs><path class="cls-1" d="m244.85,490C109.65,490-.1,380.12,0,244.95.1,109.28,109.85-.1,245.85,0c134.9.1,244.25,110.18,244.15,245.75-.1,134.67-110.15,244.35-245.15,244.25Zm-.6-83.88h91.2c2.61,0,5.41-.2,7.82-1.1,4.21-1.5,6.72-5.1,5.51-9.5-4.11-14.7-7.22-29.89-14.93-43.29-20.95-36.19-64.65-56.89-105.84-49.39-37.99,7-65.75,27.49-79.68,64.39-2.81,7.5-4.51,15.3-7.02,22.9-3.51,10.7.3,16,11.63,16h91.3Zm0-115.18c29.47.3,53.82-23.5,53.72-53.19-.1-29.59-23.25-51.79-50.11-53.19-33.17-1.7-56.13,24.3-56.63,51.59-.6,30.49,22.85,54.49,53.02,54.79Zm175.19-103.28c.3-.2.6-.4,1-.6-1.9-3.8-3.41-7.9-5.91-11.2-3.91-5.3-7.92-10.8-12.93-14.9-7.82-6.4-16.74-6.3-24.25.5-5.41,4.9-10.32,10.9-13.93,17.3-7.92,14.4-10.82,30.39-11.83,46.59-1.1,17.8-.4,35.69,4.61,52.99,3.51,12.1,8.02,23.8,17.14,32.89,6.82,6.7,14.93,10.1,24.15,5.9,12.43-5.6,17.14-17.6,22.15-29.29-1.2.3-1.5,1.2-2.1,2-7.92,10-16.14,10.1-22.25-1-4.31-7.9-7.32-16.8-9.32-25.59-4.01-17.6-3.31-35.39.1-53.09,1.9-9.8,4.91-19.4,11.83-27.19,5.51-6.2,12.73-6,17.94.5,1.2,1.3,2.41,2.7,3.61,4.2h0Zm-348.58,99.28c-.6.3-1.1.7-1.7,1,5.01,7.5,9.22,15.8,15.13,22.5,10.42,11.8,24.86,10.8,34.98-1.4,7.92-9.6,12.63-20.7,15.64-32.59,5.81-23.1,6.01-46.39,1.7-69.79-2.61-14.6-7.42-28.29-16.94-40.09-6.72-8.2-17.24-12.1-25.16-8.9-13.63,5.5-18.44,18.1-24.05,29.99,1.3-.8,2.31-1.8,3.21-3,6.51-8.7,15.03-9.2,20.55.2,4.81,8.3,8.52,17.8,10.52,27.19,3.61,16.9,3.31,34.09.2,51.09-1.8,10.4-4.81,20.5-11.83,28.79-5.61,6.6-12.83,6.5-18.34-.1-1.2-1.5-2.51-3.2-3.91-4.9h0Zm223.5-203.86c1,.9,2.1,1.9,3.21,2.8,8.92,7.2,8.92,15.3-1,21.3-6.11,3.8-13.13,6.7-20.15,8.5-20.95,5.3-42.29,5.4-63.24.1-7.62-1.9-15.13-5.4-21.75-9.6-8.62-5.5-8.32-13.1-.6-19.8,1.1-1,2.1-2,3.21-3.1-.4-.5-.8-.9-1.2-1.4-7.42,5-15.43,9.2-21.95,15.2-10.62,9.8-10.22,22.3.1,32.39,9.82,9.7,22.35,14.7,35.38,17.7,28.46,6.6,56.93,6.5,84.89-2.6,10.12-3.3,19.74-8.1,27.46-15.8,7.92-7.9,9.12-19.4,2.81-28.19-6.82-9.1-17.04-13.2-27.16-17.5Zm128.29,119.38c.3-.3.5-.5.8-.8-.8-1.2-1.5-2.5-2.41-3.7-6.82-8.7-13.83-8.7-20.15.4-2.51,3.6-4.51,7.8-5.81,12.1-4.81,15.2-5.11,30.79-2.1,46.39,1.7,8.4,4.11,16.5,10.32,22.9,2.81,2.9,6.11,4.8,10.32,3.2,4.61-1.7,7.42-5.2,9.12-9.7-1.2.4-2,1.3-2.81,2.1-4.51,4.4-8.22,4.3-12.33-.4-1.1-1.2-2-2.7-2.71-4.2-6.92-13.6-8.12-28.19-6.21-42.89,1.1-8.6,3.81-17.2,7.32-25.09,3.41-7.7,9.02-7.9,14.83-1.9.6.7,1.2,1.1,1.8,1.6h0Zm-355.1-.8c.3.3.6.5.9.8.6-.6,1.1-1.2,1.6-1.8,5.01-5.6,9.52-5.5,13.73.7,2.31,3.4,4.21,7.2,5.41,11.1,3.91,12.9,5.11,26.19,2.41,39.49-1.5,7.5-4.21,15.1-7.82,21.9-3.41,6.4-8.22,6.2-13.43,1.1-.7-.7-1.5-1.2-2.31-1.8,2,5.2,4.91,9.6,10.72,10.2,5.71.6,9.12-3.4,11.93-7.7,1.1-1.6,2.41-3.4,2.81-5.2,2.2-9.5,5.31-19,5.91-28.69.9-15-.8-29.99-9.32-43.19-2.51-3.9-5.81-7.4-10.82-6.8-5.91.7-9.22,5.1-11.73,9.9h0Zm140.72-120.48c-10.82,3.5-12.73,12.8-4.51,19.8,2.61,2.2,5.71,4.2,8.92,5.3,20.65,7.2,41.49,7.7,62.14.4,4.81-1.7,9.62-5,13.03-8.8,5.41-6.1,1.4-15.1-7.32-16.9.8.9,1.3,1.5,1.8,2.1,4.51,4.8,4.21,9.2-1.2,12.8-2.41,1.7-5.11,3.1-7.92,4.2-14.73,5.7-30.17,6-45.3,3.3-7.12-1.2-14.23-4.6-20.65-8.1-5.31-2.9-5.21-7.6-1.1-12.1.7-.6,1.4-1.3,2.1-2h0Z"/><path class="cls-1" d="m411.42,174.46c-11.43-4.6-18.34-2.1-24.86,8.4-6.61,10.6-9.72,22.4-11.12,34.39-1.9,16.4-2.51,32.99,1.7,49.09,2.51,9.4,6.21,18.5,10.62,27.19,2,3.9,6.61,7.4,10.82,9,3.61,1.3,8.32-.4,12.13-.8-4.01,10.1-18.04,12.5-26.96,3.6-8.32-8.3-12.53-18.9-15.23-29.89-7.02-28.59-6.61-57.09,3.01-85.08,2.81-8.1,6.61-15.7,13.43-21.3,9.22-7.6,19.54-5.7,26.46,5.4h0Z"/><path class="cls-1" d="m80.08,173.86c5.21-9.8,16.74-13,24.66-5.6,5.51,5.2,10.82,11.9,13.33,18.9,12.63,34.79,12.83,69.79-1.6,104.28-2.41,5.8-6.82,11.2-11.53,15.4-8.42,7.4-19.44,4.5-24.86-5.6,12.33,3.8,17.84,1.6,24.96-10,6.01-10,8.82-21.2,10.32-32.59,2.2-16.7,2.2-33.59-1.6-50.09-1.8-7.7-4.41-15.4-7.92-22.5-6.51-13.2-12.33-15.5-25.76-12.2h0Z"/><path class="cls-1" d="m181.41,91.68c-4.71,10-3.51,15.5,4.61,22.1,8.92,7.3,19.64,10.4,30.77,12.4,24.35,4.5,48.51,3.8,72.06-4.6,4.01-1.4,8.02-3.5,11.53-5.9,10.22-6.9,11.73-12.2,7.42-23.9,10.22,4.5,13.23,16.8,6.21,25.49-6.82,8.4-16.34,12.7-26.26,15.6-28.06,8.2-56.23,8.3-84.39.5-10.52-2.9-20.55-7.3-27.86-15.9-7.32-8.3-4.71-20,5.91-25.79h0Z"/></svg>