<?xml version="1.0" encoding="UTF-8"?><svg id="Layer_1" xmlns="http://www.w3.org/2000/svg" viewBox="0 0 480 480"><defs><style>.cls-1{fill:#fff;stroke-width:0px;}</style></defs><polygon class="cls-1" points="289.62 265.95 338.64 265.95 356.15 214.05 307.14 214.05 289.62 265.95"/><path class="cls-1" d="m380,0H100C44.77,0,0,44.77,0,100v280c0,55.23,44.77,100,100,100h280c55.23,0,100-44.77,100-100V100c0-55.23-44.77-100-100-100ZM86.48,355.32h-37.48L126.84,124.68h37.48l-77.84,230.64Zm49.01,0l77.84-230.64h37.48l-77.84,230.64h-37.48Zm282.54-141.27h-24.4l-17.51,51.89h24.61l-12.97,37.48h-24.29l-17.51,51.89h-37.48l17.51-51.89h-49.01l-17.51,51.89h-37.48l17.51-51.89h-24.72l12.97-37.48h24.4l17.51-51.89h-24.61l12.97-37.48h24.29l17.51-51.89h37.48l-17.51,51.89h49.01l17.51-51.89h37.48l-17.51,51.89h24.72l-12.97,37.48Z"/></svg>