<?xml version="1.0" encoding="UTF-8"?><svg id="Layer_1" xmlns="http://www.w3.org/2000/svg" viewBox="0 0 512 512"><defs><style>.cls-1{stroke-width:0px;}</style></defs><g id="X"><path class="cls-1" d="m478.7,191.2l-116.5,160.4c23.6,32.5,47.3,65.8,70.9,99h-74.5l-33.2-46.9-74.2,108.3h-75.7l112.2-160.4c-23.6-32.5-46.5-67.4-70.1-100.6h74.5l33.2,48.5,76.9-108.2,76.5-.1h0Z"/></g><g id="V"><path class="cls-1" d="m242,307.4c-1.2-1.8-2.5-3.6-3.7-5.4-10-14.5-20.3-29.6-30.5-44l-5-7-42.1,117.4-64.8-177.1H31.8l128.8,320.7,81.4-204.6h0Z"/></g><g id="R"><path class="cls-1" d="m410.9,305.1l7.7,16.5h67.4c-10.8-23.2-22.6-47.9-34.4-72.5l-40.7,56h0Z"/><path class="cls-1" d="m417.5,96.2c0,35.3-34,36.9-47.3,36.9h-89.3c.9,8.7,1.4,17.8,1.4,27.3,0,17.5-1.7,34-5.1,48.9-2.4,10.5-5.6,20.4-9.6,29.7h30.8l3.6,5.2,21.4,31.2v-83.4h34.4l11.6,24.6,23-32.4,3.6-5.1h31.4c28.4-12.9,51-38.2,51-83C478.4,1.5,388.3.7,370.3.7h-107.8v58.3h107.7c9.7,0,47.3,2,47.3,37.2h0Z"/></g><g id="D"><path class="cls-1" d="m87.3,58.5c70.1,0,121.4,25.7,121.4,101.8,0,67.8-38.7,90.3-75.6,97.8l20.2,55.2c5.5-1.3,10.9-2.8,16.2-4.5l22-61.5,2.9-8h59.9c10.1-20.8,16.1-46.8,16.1-79C270.3,18,161,0,82.9,0H26v129.5h61.3V58.5Z"/><path class="cls-1" d="m26,209.4v111.3h44.7c0,.1-44.7-111.3-44.7-111.3Z"/></g></svg>